<svg xmlns="http://www.w3.org/2000/svg" viewBox="0 0 504.19 366.09"><defs><style>.cls-1{fill:#09090a;}.cls-2{fill:#116fa3;}.cls-3{fill:#fbfbfb;}.cls-4{fill:#fefefe;}.cls-5{fill:#c6a40a;}.cls-6{fill:#de2722;}</style></defs><g id="Logos"><path class="cls-1" d="M541.51,490.75c-3.55,0-7.09.06-10.64.07H511.26c-1.62,0-1.63,0-1.58,1.61a16.41,16.41,0,0,0,.88,4.9,10.27,10.27,0,0,0,9.71,7.2,20.49,20.49,0,0,0,12.4-3.57c.86-.56,1.69-1.18,2.68-1.88,1.77,2.72,3.5,5.39,5.25,8,.53.8-.07,1.14-.55,1.5a33.12,33.12,0,0,1-11,5.7,31.33,31.33,0,0,1-15.88.45,22.92,22.92,0,0,1-17.07-15.06,38.36,38.36,0,0,1,0-27.35c3.1-8.22,9.11-13.54,18.08-14.81a26.18,26.18,0,0,1,15.07,2.09c5.09,2.39,8.17,6.54,10.08,11.66a26.05,26.05,0,0,1,1.81,9.36,9,9,0,0,0,.36,3.41Zm-23.57-10.64c2.29,0,4.58,0,6.88,0,1.66,0,1.71,0,1.63-1.76a27,27,0,0,0-.43-3.93c-.71-3.57-3.14-5.92-6.34-6.26-4-.44-6.92,1.1-8.52,4.55a18.33,18.33,0,0,0-1.35,6.07c-.09,1,.19,1.39,1.24,1.36C513.35,480.07,515.64,480.12,517.94,480.11Z" transform="translate(-37.32 -244.06)"/><path class="cls-1" d="M201.79,610.14c-.67-.72-1.63-.6-2.46-.83a14.9,14.9,0,0,1-7.77-4.59,9.65,9.65,0,0,1-1.89-9.38c.21-.73.54-1.22,1.43-1.21,3,0,6,0,9.15,0-.12.76-.24,1.35-.3,1.94-.23,2.48.75,4.28,3.09,5a15.72,15.72,0,0,0,10.42-.15,5.56,5.56,0,0,0,2.61-2,4.23,4.23,0,0,0-1.58-6.5,13.11,13.11,0,0,0-5.29-1c-3.67-.19-7.37.09-11-.54-.48-.09-1-.15-1.43-.25-4.87-1-5.41-4.22-4.94-7.7a5,5,0,0,1,2.51-3.42,16.75,16.75,0,0,1,4-1.75c-.4-.8-1.26-.78-1.9-1.09a10.1,10.1,0,0,1-5.95-8.44c-1.09-9.11,4.7-14.3,12.26-15.77a27.29,27.29,0,0,1,13.19.74,12.81,12.81,0,0,0,12.53-2.36,4.73,4.73,0,0,1,.68-.37c1.38,2.07,2.74,4.14,4.14,6.19.44.66.09,1-.37,1.38a9.57,9.57,0,0,1-5.67,2.36c-1.15,0-2.3,0-3.72,0a11.31,11.31,0,0,1,2.09,6.41,11,11,0,0,1-4.51,9.18A16.92,16.92,0,0,1,210,579.42c-2,0-3.41,1-4.84,2.07a1.18,1.18,0,0,0-.53,1.45c.24.54.78.56,1.26.58,3.19.12,6.39.17,9.58.34a15.5,15.5,0,0,1,7.68,2.35c6.59,4.19,7.1,15.47-.3,20.48a18.92,18.92,0,0,1-8.1,3.06c-.32,0-.71-.08-.83.39Zm12.52-43.86c0-2.89-1.39-5-3.88-5.74a8.52,8.52,0,0,0-4.11-.24,5.54,5.54,0,0,0-4.88,6c0,3.33,1.72,5.28,5.07,5.75a8.79,8.79,0,0,0,3.31-.15C212.85,571.16,214.3,569.37,214.31,566.28Z" transform="translate(-37.32 -244.06)"/><path class="cls-2" d="M541.51,484.07a9,9,0,0,1-.36-3.41l.36-.35Z" transform="translate(-37.32 -244.06)"/><path class="cls-1" d="M85.5,454.94l-2.8-1.53a31.12,31.12,0,0,0-13.19-4.16,13.72,13.72,0,0,0-7.86,1.5A8.07,8.07,0,0,0,57.58,459a5.7,5.7,0,0,0,2.66,4.05,19.77,19.77,0,0,0,5.37,2.19c3.54,1,7.11,1.91,10.63,2.95a26.7,26.7,0,0,1,11.65,6.63c4.65,4.69,6.38,10.46,6,16.94-.67,12-8.74,19.46-19.25,22.33-10.21,2.8-20.23,1.7-30.08-1.82a44,44,0,0,1-6.08-2.7c-1.41-.76-1.42-.78-.77-2.16q2.13-4.51,4.29-9c.73-1.53.76-1.55,2.24-.79a48.66,48.66,0,0,0,12.22,4.61,29.22,29.22,0,0,0,12.21.18c6-1.3,9.21-6.58,7.55-12.22a8.19,8.19,0,0,0-3.48-4.52,19.15,19.15,0,0,0-5.7-2.47c-3.8-1.07-7.61-2.14-11.4-3.26a31.44,31.44,0,0,1-3.49-1.35c-8.9-3.94-11.94-12.08-11.7-19.66.36-11.36,8.05-19.22,18.69-21.53,11.35-2.48,22.06-.4,32,5.61,1.54.93,1.52,1,.55,2.47Z" transform="translate(-37.32 -244.06)"/><path class="cls-1" d="M470.23,460.84c-.53-6.49-.34-12.61-.38-18.72,0-.49,0-1,0-1.46s.33-.84.92-.84c4.24,0,8.48,0,12.72,0,.77,0,.94.38.91,1,0,.48,0,1,0,1.46,0,18.07,0,36.14,0,54.22a71.53,71.53,0,0,0,1.12,14.31c.2,1,.49,2,.79,3.22h-6.68c-1.53,0-3.06,0-4.59,0-1.89,0-1.9,0-2.37-1.84a9.27,9.27,0,0,1-.18-.92c-.51-.11-.75.18-1,.39-7.54,6.11-22.82,5.22-29.77-5.55a30,30,0,0,1-4.39-11.58,40.59,40.59,0,0,1,1.53-20.36c2.08-5.88,5.56-10.72,11.18-13.71a21.26,21.26,0,0,1,15.54-1.91A15.52,15.52,0,0,1,470.23,460.84Zm-.11,25.51V474.67a2.17,2.17,0,0,0-.69-2,13.12,13.12,0,0,0-4.91-2.65c-4.22-1-7.75.37-9.58,4.55a16.83,16.83,0,0,0-1.07,3.36,51,51,0,0,0-.59,14.74,20.17,20.17,0,0,0,1,5.09,7,7,0,0,0,4.2,4.62,10.26,10.26,0,0,0,10.4-1.65,3,3,0,0,0,1.25-2.66C470.07,494.14,470.12,490.25,470.12,486.35Z" transform="translate(-37.32 -244.06)"/><path class="cls-1" d="M272.22,462.29c.76-.12,1.2-.69,1.76-1.05,6-3.85,12.44-5.41,19.47-3.51,5.87,1.59,9,5.27,9.74,11.35a47.13,47.13,0,0,1,.37,5.82v37.56c0,1.57,0,1.59-1.64,1.6-3.61,0-7.23,0-10.84,0-1.82,0-1.85,0-1.85-1.79q0-7.41,0-14.82c0-6.53,0-13.07,0-19.61a35.89,35.89,0,0,0-.19-3.74c-.36-3.41-2.11-4.93-5.54-4.85a15.87,15.87,0,0,0-6.74,2c-.31.15-.61.33-.91.5-3.53,2.07-3.53,2.07-3.53,6.15v33.8c0,.49,0,1,0,1.46,0,.75-.35,1-1,1-1.46,0-2.92,0-4.38,0-2.72,0-5.43,0-8.14,0-1.1,0-1.53-.35-1.41-1.43a14.22,14.22,0,0,0,0-1.46V446.92c0-1.94,0-3.89-.06-5.84-.05-1,.35-1.28,1.32-1.27,4.1,0,8.21.05,12.31,0,1.12,0,1.41.36,1.38,1.43-.13,6.81.19,13.63-.19,20.44A3.17,3.17,0,0,0,272.22,462.29Z" transform="translate(-37.32 -244.06)"/><path class="cls-1" d="M403.7,514.23a2.62,2.62,0,0,0-.41-.14c-1-.16-2.3.43-3-.31s-.78-1.9-1.11-2.88q-8.43-25.15-16.85-50.32c-.11-.32-.18-.64-.29-1,1.42-.66,2.91-.5,4.33-.7,3-.41,5.93-.76,8.9-1.07,1.64-.18,1.66-.13,2.12,1.43,2.82,9.44,5.66,18.87,8.42,28.33,1.09,3.73,2,7.51,3,11.26.12.47.1,1,.69,1.38.78-3.8,1.37-7.6,2.51-11.25,3-9.74,6.09-19.46,9.13-29.19.21-.67.32-1.31,1.3-1.3,4.72,0,9.44,0,14,0a.74.74,0,0,1,.23.89q-10.8,30.06-21.6,60.11a53.42,53.42,0,0,1-3.41,7.37c-3.18,5.84-8.41,8.87-14.57,10.59-1.39.39-3,1.16-4.23.67s-1.44-2.25-2.1-3.45c-.83-1.53-1.62-3.07-2.41-4.61-.68-1.35-.67-1.34.7-1.82s3-1.06,4.49-1.64a14.8,14.8,0,0,0,7.38-6.47A30.81,30.81,0,0,0,403.7,514.23Z" transform="translate(-37.32 -244.06)"/><path class="cls-1" d="M197.12,479.54a20.3,20.3,0,0,0-.29-6.42,4.29,4.29,0,0,0-4.2-3.66,18.26,18.26,0,0,0-8,1,42,42,0,0,0-8,4,6.47,6.47,0,0,1-1.94,1.05c-1.89-3.18-3.8-6.4-5.73-9.6-.4-.67-.1-1,.44-1.33,5.44-3.14,11.1-5.73,17.34-6.79a31.55,31.55,0,0,1,13.64.43c5.65,1.53,9.67,4.83,10.89,10.8a35.94,35.94,0,0,1,.45,7.9c-.15,6.6-.25,13.2-.35,19.8a30.8,30.8,0,0,0,.14,3.33,9.78,9.78,0,0,0,3.69,6.77c.38.3.74.61,1.08.89.15.66-.36.92-.65,1.27q-2.91,3.4-5.85,6.79c-1,1.16-1,1.17-2.42.44a15.56,15.56,0,0,1-5.67-4.8c-.23-.32-.35-.77-.87-.92a2.86,2.86,0,0,0-.44.3c-4.3,4.47-9.75,5.59-15.65,5.28a24.27,24.27,0,0,1-6.54-1.14c-5.51-1.86-9-5.54-10.27-11.28a22.8,22.8,0,0,1,.17-10.74c1.31-5,4.6-8.44,9.32-10.52,5.07-2.23,10.45-2.66,15.89-2.83C194.53,479.51,195.77,479.54,197.12,479.54ZM196.81,496H197c0-1.67,0-3.33,0-5,0-.72-.11-1.18-1-1.17a27.87,27.87,0,0,0-8.23.88,6.25,6.25,0,0,0-4.65,5.28,11.3,11.3,0,0,0-.06,3.53,6.35,6.35,0,0,0,8.31,5.49,11.17,11.17,0,0,0,4.64-2.65,2.1,2.1,0,0,0,.8-1.8C196.77,499.05,196.81,497.52,196.81,496Z" transform="translate(-37.32 -244.06)"/><path class="cls-1" d="M439.63,244.1h60.09c2.71,0,3,.2,3.86,2.79q18.13,54.26,36.26,108.52c.31.92.63,1.84.92,2.77.71,2.28.55,2.82-1.41,4.2q-17,12-34.05,24.05l-62.5,44.13c-.45.32-.9.65-1.36,1-1.64,1.09-2.07,1.11-3.75-.06q-7.59-5.34-15.15-10.7L340.83,363c-3.55-2.51-3.55-2.5-2.18-6.56l34.23-101.32c1-2.82,1.92-5.65,2.89-8.47.82-2.39,1.09-2.59,3.57-2.59h60.29Zm.61,3.28v0H381.19c-2.14,0-2.14,0-2.77,1.87l-36.78,108.6c-.64,1.9-.64,1.9,1.09,3.13l.17.11,94.81,67c2.36,1.66,2.36,1.66,4.7,0l92.41-65c1.08-.76,2.16-1.52,3.25-2.26.64-.43,1-.89.58-1.7a5.4,5.4,0,0,1-.34-1Q524.15,315.83,510,273.51L501.79,249c-.54-1.63-.55-1.63-2.3-1.64H440.24Z" transform="translate(-37.32 -244.06)"/><path class="cls-1" d="M61.45,563H81.74c1.65,0,1.66-.05,1.66,1.54q0,12.11,0,24.21a1.91,1.91,0,0,1-1.1,2c-8.07,4.2-16.57,5.64-25.43,3.41-8.09-2-13-7.76-15.73-15.35-2-5.6-2.07-11.45-1.51-17.3a29.81,29.81,0,0,1,3.48-11.7c4.59-8.27,13.45-13.88,25.05-12.52a26.65,26.65,0,0,1,13.56,5.39c.28.22.54.44.8.68a2.13,2.13,0,0,1,.26.45q-2.91,3.42-5.93,7c-.73-.5-1.35-1-2-1.35a17.1,17.1,0,0,0-12.3-2.78,10.29,10.29,0,0,0-7.8,5.61A19.81,19.81,0,0,0,52.62,560c-.51,5.62-.73,11.24.57,16.8,1.87,8,9.4,11.83,17.12,8.82a1.62,1.62,0,0,0,1.26-1.8c-.06-3.34-.08-6.68,0-10,0-1.2-.47-1.38-1.47-1.35-2,.05-4,0-6,0-.68,0-1.16-.1-1.28-1C62.41,568.73,61.94,566,61.45,563Z" transform="translate(-37.32 -244.06)"/><path class="cls-1" d="M271.23,553.5c3.15-.35,6.39-.68,9.62-1.09,1.21-.16,1.18.72,1.33,1.4.91,4.13,1.8,8.27,2.64,12.42.92,4.49,1.78,9,2.72,13.75.67-3.17,1.17-6.11,1.9-9,1.47-5.71,3.08-11.38,4.59-17.08a1.27,1.27,0,0,1,1.47-1.1c2.64,0,5.28.06,7.92,0,1,0,1.41.36,1.64,1.35,1.78,7.57,3.76,15.09,5.23,22.72.17.89.37,1.76.59,2.85.81-1.63.76-3.25,1-4.78,1.13-7.07,2.87-14,4.27-21,.12-.59.27-1.09,1-1.09h10.6c-.87,3.09-1.65,5.95-2.47,8.8q-4.38,15.42-8.78,30.81c-.57,2-.57,2-2.64,2s-4.32-.07-6.47,0c-1.15,0-1.75-.25-2-1.46-2-8.41-4.62-16.65-6.06-25.28a4.65,4.65,0,0,0-.74,2.21c-1.89,7.76-3.83,15.49-5.67,23.26-.26,1.1-.77,1.27-1.71,1.26-2.43,0-4.87-.07-7.3,0a1.66,1.66,0,0,1-2-1.5c-1.71-6.36-3.54-12.69-5.31-19s-3.47-12.57-5.22-18.85A2,2,0,0,1,271.23,553.5Z" transform="translate(-37.32 -244.06)"/><path class="cls-1" d="M347.81,498.94c2,2.67,4.05,5.38,6.11,8.08.47.61.17,1-.26,1.41a19.85,19.85,0,0,1-5.16,3.86,27.16,27.16,0,0,1-22.6,1.25,19.58,19.58,0,0,1-11.68-11.81c-3.91-10.22-4-20.59.37-30.66,5.87-13.51,20.37-16.37,30.15-12.89a21.79,21.79,0,0,1,8.13,5.17c-2.32,3.15-4.61,6.26-6.88,9.36-.82.07-1.13-.58-1.6-.93a16,16,0,0,0-5.07-2.81,7.5,7.5,0,0,0-9.32,3.88,20.71,20.71,0,0,0-2.07,8.23,60.22,60.22,0,0,0,.29,13.94,18.05,18.05,0,0,0,.87,3.42,8.37,8.37,0,0,0,10.18,5.44,16.56,16.56,0,0,0,6.56-3.47A7.62,7.62,0,0,1,347.81,498.94Z" transform="translate(-37.32 -244.06)"/><path class="cls-1" d="M129.64,458.68a3.42,3.42,0,0,1-.1.79c-1,2.68-2,5.33-2.92,8a1.47,1.47,0,0,1-1.67,1.14c-2.29-.07-4.59,0-6.88,0-.93,0-1.15.34-1.15,1.2,0,9.73,0,19.47.14,29.19.08,4.94,2.12,6.51,7.06,6a15.38,15.38,0,0,0,3.24-.73c.71-.23,1,0,1.18.68q.72,3.46,1.47,6.92c.14.63,0,1.09-.63,1.33-6.15,2.23-12.39,3.16-18.72.79-5.29-2-8.18-5.82-8.22-11.55-.06-10.43,0-20.86-.06-31.28,0-2.55,0-2.55-2.51-2.55-3.05,0-3.05,0-3.05-3.08,0-1.94,0-3.89,0-5.84,0-.88.26-1.27,1.19-1.22s2.09,0,3.13,0,1.28-.4,1.27-1.35c0-2.23,0-4.45.06-6.67,0-.49,0-1,.05-1.46.12-1.71.12-1.73,1.81-1.74h9c1,0,2,0,2.92,0,.82,0,1.06.28,1,1.1q-.19,4.26-.27,8.54c0,1.55,0,1.57,1.63,1.58,3,0,6,0,9,0A4.12,4.12,0,0,1,129.64,458.68Z" transform="translate(-37.32 -244.06)"/><path class="cls-1" d="M250.65,458.77c-1.11,3-2.26,6.05-3.34,9.1-.3.84-.91.72-1.52.73-2.22,0-4.45,0-6.67,0-1,0-1.45.19-1.44,1.36,0,9.11,0,18.22,0,27.33a22.59,22.59,0,0,0,.41,3.93c.47,2.42,1.83,3.52,4.3,3.79a13.31,13.31,0,0,0,5.74-.72c.82-.27,1.09,0,1.24.79q.65,3.38,1.46,6.71c.18.77,0,1.18-.71,1.44a29.32,29.32,0,0,1-13.68,2,18.52,18.52,0,0,1-7.83-2.62,11.07,11.07,0,0,1-5.23-8.34,53,53,0,0,1-.29-6.66q0-13.68,0-27.34c0-1.72.09-1.62-1.54-1.61-1,0-1.95,0-2.92,0-.67,0-1-.18-1-.93,0-2.79,0-5.57,0-8.35,0-.63.28-.87.88-.86.83,0,1.67,0,2.5,0,2.08,0,2.12,0,2.14-2.15,0-2.58.13-5.14.23-7.71.05-1.13.47-1.38,1.5-1.37,3.89.05,7.79,0,11.68,0,1.51,0,1.53,0,1.47,1.67-.1,2.64-.25,5.28-.34,7.92-.05,1.58,0,1.61,1.58,1.61,3.19,0,6.39,0,9.59,0A2.67,2.67,0,0,1,250.65,458.77Z" transform="translate(-37.32 -244.06)"/><path class="cls-1" d="M374.18,470.65v26.48a25.41,25.41,0,0,0,.34,4.77c.45,2.38,1.63,3.45,4,3.26,1-.08,1.29.2,1.53,1.1.54,2.15,1.19,4.27,1.85,6.39.26.81.19,1.26-.74,1.53-4.28,1.23-8.58,1.72-12.92.38-5.19-1.61-8-5.19-8.72-10.54a73,73,0,0,1-.37-9.58q0-25.32-.05-50.66c0-1.24-.62-2.84.1-3.63s2.49-.29,3.79-.31c3.13,0,6.25,0,9.38,0,1.88,0,1.77-.09,1.77,1.85v29Z" transform="translate(-37.32 -244.06)"/><path class="cls-1" d="M138.12,591.78a3.19,3.19,0,0,0-.56.32c-5.35,4.91-11.49,4.74-17.74,2.47-4.08-1.47-6.17-4.84-6.71-9.08-.7-5.43.31-10.28,5.16-13.62a17.85,17.85,0,0,1,7-2.63,44.38,44.38,0,0,1,8.3-.63c1.78,0,1.79,0,1.75-1.85a16.63,16.63,0,0,0-.14-1.87c-.38-2.9-1.44-3.88-4.36-3.92a17,17,0,0,0-8,2.17,41.6,41.6,0,0,0-3.6,2.09c-.54.34-.87.28-1.18-.24q-1.91-3.22-3.83-6.45c-.28-.48-.29-.88.27-1.21,7.11-4,14.5-6.75,22.85-4.8,5.4,1.27,8.18,4.51,8.71,10,.33,3.47-.06,7,0,10.42,0,2.44,0,4.87-.14,7.3-.15,3.77.32,7.27,4,9.54-1.81,2.09-3.51,4-5.16,6a1.21,1.21,0,0,1-1.79.27A12.53,12.53,0,0,1,138.12,591.78ZM135,580.83h.06c0-1.17,0-2.35,0-3.53,0-.67-.11-1-.88-1a20.66,20.66,0,0,0-5.76.63,4.54,4.54,0,0,0-3.34,2.85,7.33,7.33,0,0,0-.07,4.89,4.55,4.55,0,0,0,5.21,3.11c3-.5,4.73-2.14,4.77-4.65C135,582.36,135,581.59,135,580.83Z" transform="translate(-37.32 -244.06)"/><path class="cls-1" d="M270.24,573.41a27,27,0,0,1-1,8.7c-2.57,8.72-9.69,13.68-18.87,13.19-7.9-.42-13.81-4.81-16.3-12.39a28.48,28.48,0,0,1,.28-19c2.52-6.94,8.79-12.9,19.79-11.78,7.73.79,14.34,7.18,15.69,15.32A29.48,29.48,0,0,1,270.24,573.41Zm-12,.52c0-3.5,0-6.57-1-9.51a5.85,5.85,0,0,0-5.77-4.28c-2.54.05-4.54,1.65-5.5,4.35a20.16,20.16,0,0,0-.94,5.32,36.66,36.66,0,0,0,1,13.44,5.5,5.5,0,0,0,5.27,4,5.15,5.15,0,0,0,5.47-3.32,13.56,13.56,0,0,0,.61-1.76A29.27,29.27,0,0,0,258.27,573.93Z" transform="translate(-37.32 -244.06)"/><path class="cls-1" d="M149.86,464.81a28.94,28.94,0,0,1,6.54-5.91A12.65,12.65,0,0,1,167,457.83c1,.3,1.25.84.92,1.85q-1.72,5.24-3.31,10.52c-.28.94-.63.94-1.48.62-4.88-1.82-9,.71-11.57,3.56-.5.55-.35,1.16-.36,1.77,0,4.58,0,9.17,0,13.76,0,7.44,0,14.88,0,22.32,0,1.81,0,1.83-1.82,1.83q-5.52,0-11.05,0c-1.78,0-1.8,0-1.8-1.82,0-9.53,0-19.06,0-28.58,0-4,.09-8.06-.19-12.1a43.07,43.07,0,0,0-1.57-9.84c-.25-.8-.09-1.16.68-1.36q5.53-1.47,11.06-3a1.2,1.2,0,0,1,1.63.79A19.71,19.71,0,0,1,149.86,464.81Z" transform="translate(-37.32 -244.06)"/><path class="cls-1" d="M151.3,590.84c1.17-2.39,2.33-4.61,3.35-6.88.44-1,.83-1,1.7-.53a31.54,31.54,0,0,0,10.66,4,8,8,0,0,0,4.31-.27,4.54,4.54,0,0,0,3.15-4c.15-1.82-.86-3.32-2.84-4.19-2.38-1-5-1.27-7.48-1.73a17.64,17.64,0,0,1-5.63-2.05,9.66,9.66,0,0,1-4.77-6.27c-2.09-8,2.56-15.14,11-16.75,6.85-1.3,13.22.18,19.53,3.49-1.12,2.3-2.24,4.56-3.34,6.84-.35.74-.78.32-1.18.13a25.93,25.93,0,0,0-6.65-2.34,9.65,9.65,0,0,0-5.14.19,3.72,3.72,0,0,0-2.73,3.55,3.5,3.5,0,0,0,2.5,3.25,72.57,72.57,0,0,0,7,2c1.19.35,2.39.68,3.57,1.08,5.38,1.82,8.76,6.91,7.41,13.66-1.27,6.34-5.7,9.61-11.65,11.09a27.09,27.09,0,0,1-15.38-1A38.49,38.49,0,0,1,151.3,590.84Z" transform="translate(-37.32 -244.06)"/><path class="cls-1" d="M92,561c-.06-7.07.22-15-.5-22.9-.09-1,.16-1.33,1.13-1.53,2.85-.58,5.67-1.31,8.52-1.93,1.49-.33,1.55-.25,1.72,1.38a101.69,101.69,0,0,1,.4,10.62q0,17.61,0,35.23a21.73,21.73,0,0,0,.15,3.33c.29,1.87,1,2.54,2.91,2.56.81,0,1.08.23,1.26.94.41,1.54.84,3.08,1.36,4.59.29.84-.08,1.16-.77,1.35a16.51,16.51,0,0,1-9.24.28c-4.33-1.28-6.75-4.46-6.89-9.31-.11-4,0-8.06-.06-12.09S92,565.72,92,561Z" transform="translate(-37.32 -244.06)"/><path class="cls-1" d="M70.19,396.47c0,4,0,7.92,0,11.88,0,6.54-2.93,10.26-9.31,11.63a21.13,21.13,0,0,1-10.9-.51,9.92,9.92,0,0,1-7.29-9.56c0-7.3,0-14.6,0-21.9,0-1.8,0-3.61,0-5.42,0-.91.33-1.2,1.22-1.17,1.73.06,3.47,0,5.21,0,1.55,0,1.58,0,1.58,1.64,0,6.33,0,12.65,0,19,0,2.08,0,4.17,0,6.25s.71,4,2.92,4.82c2.46.88,4.91.88,7.07-.9a4,4,0,0,0,1.32-2.3,15.43,15.43,0,0,0,.26-3.11q0-11.37,0-22.73c0-.48,0-1,0-1.46-.06-.86.24-1.24,1.18-1.21,1.59.06,3.19,0,4.79,0,2,0,2,0,2,1.89,0,3.48,0,6.95,0,10.43Z" transform="translate(-37.32 -244.06)"/><path class="cls-1" d="M250.44,427c4.14-.86,6.84-3.08,8.05-7.14-1.25.06-1.8-.54-2.2-1.76-2.7-8.31-5.52-16.57-8.31-24.85a2,2,0,0,1-.18-1.31c2.15-.26,4.34-.5,6.53-.81,1-.15,1.09.58,1.29,1.23q2.1,7.08,4.19,14.16a36.14,36.14,0,0,0,1.84,5.32c.12-.56.22-1.12.35-1.68,1.41-6,3.59-11.8,5.32-17.72a1.21,1.21,0,0,1,1.34-1c2.15,0,4.3,0,6.36,0,.46.46.26.87.12,1.24q-5.33,14.87-10.7,29.73c-.35,1-.83,1.91-1.26,2.85-1.74,3.82-5,5.64-8.86,6.55a1.36,1.36,0,0,1-1.83-.83C251.94,429.73,251.24,428.54,250.44,427Z" transform="translate(-37.32 -244.06)"/><path class="cls-1" d="M308.2,405.46a17.64,17.64,0,0,1-1,6.69,11.78,11.78,0,0,1-12,8.14c-5.5-.14-9.79-3-11.51-8.25a19.12,19.12,0,0,1,.33-13.45c2.16-5.4,6.88-8.11,13-7.59a12.3,12.3,0,0,1,10.76,9.84A17.18,17.18,0,0,1,308.2,405.46Zm-8.09,0c-.09-1.33-.18-2.78-.32-4.23a7.65,7.65,0,0,0-.39-1.62,4.07,4.07,0,0,0-3.93-3.13,4,4,0,0,0-3.82,3.26,27.32,27.32,0,0,0,0,12,3.73,3.73,0,0,0,1.25,2.11,3.82,3.82,0,0,0,6.18-1.48C300,410.21,299.89,407.89,300.11,405.49Z" transform="translate(-37.32 -244.06)"/><path class="cls-1" d="M150.94,408c0,.31-.06.38-.06.45,0,4.87,3.11,7.1,7.9,6.13a8.83,8.83,0,0,0,3.93-1.83c.92-.77,1.41-.55,1.9.42a17.24,17.24,0,0,0,1.12,1.75c1.05,1.64,1.05,1.65-.48,2.69a15.85,15.85,0,0,1-12.72,2.47c-5-1.08-8.66-5.23-9.52-10.71a21.67,21.67,0,0,1,.37-9.31c2.67-9.51,11.65-10.84,17.86-7.74,2.79,1.39,4.23,3.95,5,6.86a32,32,0,0,1,.85,7.44c0,1.13-.42,1.41-1.47,1.4-4.17-.05-8.34,0-12.52,0Zm4.19-5.56h2.07c2.2,0,2.34-.17,2-2.37a8.57,8.57,0,0,0-.28-1,3.56,3.56,0,0,0-3.32-2.69,3.83,3.83,0,0,0-3.88,2.22,9.33,9.33,0,0,0-.73,2.8c-.11.68.11,1,.86,1C152.91,402.45,154,402.47,155.13,402.47Z" transform="translate(-37.32 -244.06)"/><path class="cls-1" d="M83.52,394c.87-.52,1.67-1.06,2.51-1.51a10.13,10.13,0,0,1,8.23-1,6,6,0,0,1,4.51,5.4c.06.69.13,1.39.14,2.08q0,9.6,0,19.2c0,1.61,0,1.62-1.57,1.63s-3.06,0-4.58,0c-.92,0-1.2-.3-1.19-1.19,0-3.55,0-7.1,0-10.65,0-2.22,0-4.45,0-6.67a11.8,11.8,0,0,0-.09-1.46c-.32-2.21-1.32-2.83-3.48-2.24a9.44,9.44,0,0,0-1.9.83,3.3,3.3,0,0,0-2,3.43c.15,5.35.05,10.71.05,16.07,0,2.09.09,1.86-1.94,1.87-1.46,0-2.92,0-4.38,0-.89,0-1.24-.25-1.21-1.18.06-1.94,0-3.89,0-5.84,0-4.38,0-8.76,0-13.14a19,19,0,0,0-.66-5.78c-.28-.88-.09-1.28.76-1.51,1.47-.4,2.94-.81,4.4-1.25.88-.27,1.49-.13,1.75.85C83,392.57,83.27,393.21,83.52,394Z" transform="translate(-37.32 -244.06)"/><path class="cls-1" d="M208.71,398.4a23.8,23.8,0,0,0-5.15-1.82,6.09,6.09,0,0,0-3.68.23,2.34,2.34,0,0,0-1.55,2.25,2.1,2.1,0,0,0,1.42,2.09,15.68,15.68,0,0,0,2,.68c1.53.44,3.08.83,4.62,1.25,7.37,2,7.08,10.28,3.63,13.85a12.25,12.25,0,0,1-8,3.59c-4.43.45-8.5-.89-12.42-2.81-.5-.24-.75-.5-.43-1.12.79-1.53,1.51-3.09,2.32-4.74,1.67.76,3.15,1.63,4.78,2.2a16.64,16.64,0,0,0,4,.91,4.21,4.21,0,0,0,2.79-.62,2.82,2.82,0,0,0-.17-4.95c-1.49-.83-3.2-.88-4.81-1.26-.75-.18-1.52-.25-2.24-.49-3.05-1-5.21-2.93-5.64-6.28a8.52,8.52,0,0,1,3.38-8.46,12.17,12.17,0,0,1,7.47-2.18,20.15,20.15,0,0,1,9,2.13c.74.35,1.14.65.63,1.54C210,395.65,209.41,397,208.71,398.4Z" transform="translate(-37.32 -244.06)"/><path class="cls-1" d="M142.11,391.46a2.39,2.39,0,0,1-.25,1.72c-3.05,8.34-6.11,16.68-9.09,25-.43,1.18-1,1.69-2.22,1.56-1.51-.17-3.38.56-4.47-.3s-1.14-2.59-1.65-4q-4-10.83-8-21.67a4.27,4.27,0,0,1-.51-1.9c2.18-.29,4.37-.54,6.55-.88,1-.16,1.12.49,1.33,1.18,1.54,4.89,3.25,9.74,4.61,14.69a7.09,7.09,0,0,0,.76,1.85c.88-2.73,1.62-5.43,2.5-8.08s1.7-5.14,2.47-7.73c.31-1.06.72-1.63,2-1.56C138.12,391.55,140.13,391.46,142.11,391.46Z" transform="translate(-37.32 -244.06)"/><path class="cls-1" d="M327.94,391.46c-.64,1.7-1.2,3.1-1.68,4.53-.23.69-.67.78-1.28.77-1,0-2.08,0-3.12,0-.83,0-1.13.32-1.06,1.11,0,.41,0,.83,0,1.25q0,9.28,0,18.58c0,2.39.19,2-2.15,2.07-1.39,0-2.78,0-4.17,0-.72,0-1-.28-1-1,0-.48,0-1,0-1.46,0-6.12,0-12.24,0-18.37a4.41,4.41,0,0,0-.16-2c-2.41-.31-2.41-.31-2.41-2.84s0-2.51,2.51-2.76a3,3,0,0,0,0-1.78,13,13,0,0,1,.22-4.35,7.22,7.22,0,0,1,5-5.64,12.83,12.83,0,0,1,9.54.62c.73.33,1.19.7.57,1.55-.28.38-.42.87-.67,1.29-.42.71-.55,1.68-1.27,2.09s-1.41-.37-2.15-.51c-2.2-.44-3.73.61-3.89,2.84-.07,1,0,2.09,0,3.13,0,.78.37.92,1,.9,1,0,1.95,0,2.92,0Z" transform="translate(-37.32 -244.06)"/><path class="cls-1" d="M239.26,383.09c0,2.4,0,4.68,0,7,0,1.37,0,1.39,1.3,1.41,1.65,0,3.3,0,5.07,0a29.39,29.39,0,0,1-1.53,4.67c-.2.59-.65.64-1.16.63-.91,0-1.81,0-2.71,0-.67,0-1,.15-1,.92,0,4.86,0,9.72.12,14.58.06,2.32,1.28,3.17,3.6,2.82.34-.06.67-.17,1-.26.71-.19,1.08-.07,1.29.8.91,3.59.63,4.09-3,4.57a12.59,12.59,0,0,1-6-.41,6,6,0,0,1-4.4-6.1c0-5,0-10-.06-15,0-1.77,0-1.84-1.69-1.89-1,0-1.2-.43-1.14-1.26,0-.56,0-1.12,0-1.67a5,5,0,0,1,.14-2c.36-.7,1.26-.3,1.92-.34s.77-.44.78-1c0-1.39.09-2.78.06-4.17a1.57,1.57,0,0,1,1.51-1.81C235.37,384.13,237.36,383.56,239.26,383.09Z" transform="translate(-37.32 -244.06)"/><path class="cls-1" d="M178.91,394.31c.89-.76,1.7-1.51,2.55-2.2A6.45,6.45,0,0,1,187,391c.79.15,1.2.53.86,1.46-.53,1.43-1,2.89-1.39,4.36-.22.75-.38,1.28-1.39.86a4,4,0,0,0-2.46,0,3.65,3.65,0,0,0-3.08,4c0,5.49,0,11,0,16.46,0,1.59,0,1.6-1.6,1.61s-2.91,0-4.37,0-1.53,0-1.54-1.64c0-3,0-6,0-9,0-4,.11-8.06-.22-12.08a20.06,20.06,0,0,0-.57-3.48c-.18-.67-.18-1.07.54-1.26,1.67-.44,3.35-.87,5-1.32.79-.21,1.16.15,1.36.86S178.63,393.45,178.91,394.31Z" transform="translate(-37.32 -244.06)"/><path class="cls-1" d="M224.47,390.86a4.21,4.21,0,0,1,.24,2.06q0,12.39,0,24.77c0,.35,0,.7,0,1,.08.86-.36,1-1.12,1-1.8,0-3.61,0-5.41,0-.7,0-1.05-.23-1-1,0-.27,0-.55,0-.83V393.83c0-1.8,0-1.81,1.87-2.11Z" transform="translate(-37.32 -244.06)"/><path class="cls-1" d="M113.31,390.82v1.33q0,12.94,0,25.88c0,1.7,0,1.71-1.66,1.73s-3.06-.06-4.59,0c-1.06.06-1.28-.38-1.27-1.34,0-4.17,0-8.34,0-12.52V394c0-2.12-.17-2.13,1.89-2.33C109.48,391.52,111.25,391.15,113.31,390.82Z" transform="translate(-37.32 -244.06)"/><path class="cls-1" d="M109.7,379.27a4.43,4.43,0,0,1,4.45,4.68,4.59,4.59,0,1,1-4.45-4.68Z" transform="translate(-37.32 -244.06)"/><path class="cls-1" d="M216.37,384a4.55,4.55,0,0,1,4.54-4.69,4.49,4.49,0,0,1,4.64,4.57,4.59,4.59,0,0,1-9.18.12Z" transform="translate(-37.32 -244.06)"/><path class="cls-3" d="M517.94,480.12c-2.3,0-4.59-.05-6.89,0-1.05,0-1.33-.4-1.24-1.36a18.33,18.33,0,0,1,1.35-6.07c1.6-3.45,4.5-5,8.52-4.55,3.2.34,5.63,2.69,6.34,6.26a27,27,0,0,1,.43,3.93c.08,1.73,0,1.75-1.63,1.76C522.52,480.13,520.23,480.11,517.94,480.12Z" transform="translate(-37.32 -244.06)"/><path class="cls-3" d="M214.31,566.28c0,3.09-1.46,4.88-4.49,5.61a8.79,8.79,0,0,1-3.31.15c-3.35-.47-5-2.42-5.07-5.75a5.54,5.54,0,0,1,4.88-6,8.52,8.52,0,0,1,4.11.24C212.92,561.26,214.32,563.39,214.31,566.28Z" transform="translate(-37.32 -244.06)"/><path class="cls-3" d="M470.12,486.35c0,3.9-.05,7.79,0,11.68a3,3,0,0,1-1.25,2.66,10.26,10.26,0,0,1-10.4,1.65,7,7,0,0,1-4.2-4.62,20.17,20.17,0,0,1-1-5.09,51,51,0,0,1,.59-14.74,16.83,16.83,0,0,1,1.07-3.36c1.83-4.18,5.36-5.52,9.58-4.55a13.12,13.12,0,0,1,4.91,2.65,2.17,2.17,0,0,1,.69,2Z" transform="translate(-37.32 -244.06)"/><path class="cls-3" d="M196.81,496c0,1.53,0,3.06,0,4.58a2.1,2.1,0,0,1-.8,1.8,11.17,11.17,0,0,1-4.64,2.65,6.35,6.35,0,0,1-8.31-5.49,11.3,11.3,0,0,1,.06-3.53,6.25,6.25,0,0,1,4.65-5.28,27.87,27.87,0,0,1,8.23-.88c.89,0,1,.45,1,1.17,0,1.66,0,3.32,0,5Z" transform="translate(-37.32 -244.06)"/><path class="cls-3" d="M440.24,247.38h59.25c1.75,0,1.76,0,2.3,1.64L510,273.51q14.16,42.33,28.33,84.67a5.4,5.4,0,0,0,.34,1c.47.81.06,1.27-.58,1.7-1.09.74-2.17,1.5-3.25,2.26l-92.41,65c-2.34,1.64-2.34,1.64-4.7,0l-94.81-67-.17-.11c-1.73-1.23-1.73-1.23-1.09-3.13l36.78-108.6c.63-1.87.63-1.87,2.77-1.87h59.05Zm.33,5.1H401.35a33.37,33.37,0,0,0-7.66.77c-7.38,1.74-12.82,5.82-15.55,13.08-.39,1-.64,2.13-1,3.18q-12,36.14-24.11,72.27a20.67,20.67,0,0,0,2.29,18.53,33.88,33.88,0,0,0,9.29,9.46q25.85,18.33,51.67,36.7a114.69,114.69,0,0,0,10,6.82c8.67,4.9,17.38,5.15,25.75-.54,18.38-12.5,36.67-25.15,55-37.75,4.23-2.91,8.47-5.83,12.65-8.82a16.83,16.83,0,0,0,6.05-8.28,27.27,27.27,0,0,0,1-12.55c-.49-4.25-2.09-8.2-3.42-12.21q-8.74-26.47-17.53-52.93c-1.54-4.6-2.77-9.33-4.69-13.79-4-9.19-10.79-14.22-21.06-14-3.06.06-6.12.08-9.18.08Q455.7,252.5,440.57,252.48Z" transform="translate(-37.32 -244.06)"/><path class="cls-3" d="M135,580.83c0,.76,0,1.53,0,2.29,0,2.51-1.73,4.15-4.77,4.65a4.55,4.55,0,0,1-5.21-3.11,7.33,7.33,0,0,1,.07-4.89,4.54,4.54,0,0,1,3.34-2.85,20.66,20.66,0,0,1,5.76-.63c.77,0,.91.34.88,1,0,1.18,0,2.36,0,3.53Z" transform="translate(-37.32 -244.06)"/><path class="cls-3" d="M258.27,573.93a29.27,29.27,0,0,1-.91,8.24,13.56,13.56,0,0,1-.61,1.76,5.15,5.15,0,0,1-5.47,3.32,5.5,5.5,0,0,1-5.27-4,36.66,36.66,0,0,1-1-13.44,20.16,20.16,0,0,1,.94-5.32c1-2.7,3-4.3,5.5-4.35a5.85,5.85,0,0,1,5.77,4.28C258.23,567.36,258.26,570.43,258.27,573.93Z" transform="translate(-37.32 -244.06)"/><path class="cls-3" d="M300.11,405.49c-.22,2.4-.07,4.72-1,6.88a3.82,3.82,0,0,1-6.18,1.48,3.73,3.73,0,0,1-1.25-2.11,27.32,27.32,0,0,1,0-12,4,4,0,0,1,3.82-3.26,4.07,4.07,0,0,1,3.93,3.13,7.65,7.65,0,0,1,.39,1.62C299.93,402.71,300,404.16,300.11,405.49Z" transform="translate(-37.32 -244.06)"/><path class="cls-3" d="M155.13,402.47c-1.11,0-2.22,0-3.32,0-.75,0-1-.35-.86-1a9.33,9.33,0,0,1,.73-2.8,3.83,3.83,0,0,1,3.88-2.22,3.56,3.56,0,0,1,3.32,2.69,8.57,8.57,0,0,1,.28,1c.38,2.2.24,2.36-2,2.37Z" transform="translate(-37.32 -244.06)"/><path class="cls-1" d="M440.57,252.48q15.12,0,30.25,0c3.06,0,6.12,0,9.18-.08,10.27-.2,17.1,4.83,21.06,14,1.92,4.46,3.15,9.19,4.69,13.79q8.79,26.46,17.53,52.93c1.33,4,2.93,8,3.42,12.21a27.27,27.27,0,0,1-1,12.55,16.83,16.83,0,0,1-6.05,8.28c-4.18,3-8.42,5.91-12.65,8.82-18.32,12.6-36.61,25.25-55,37.75-8.37,5.69-17.08,5.44-25.75.54a114.69,114.69,0,0,1-10-6.82q-25.85-18.35-51.67-36.7a33.88,33.88,0,0,1-9.29-9.46A20.67,20.67,0,0,1,353,341.78q12.1-36.11,24.11-72.27c.35-1.05.6-2.14,1-3.18,2.73-7.26,8.17-11.34,15.55-13.08a33.37,33.37,0,0,1,7.66-.77ZM410.9,294.93l0,.09,0-.07a2.27,2.27,0,0,0-2-.84,10.28,10.28,0,0,1-3-2.17,8.21,8.21,0,0,0-3.28-2.14,3.53,3.53,0,0,0-3.45.43,2.72,2.72,0,0,0,2,1.81c2.5.79,5,1.64,7.49,2.46C409.36,294.83,410.06,295.28,410.9,294.93Zm58.65-1.62-2.76.83c-.05-.88.44-1.64.43-2.56-.06-7,0-14,0-21,0-.44.18-.95-.25-1.31-1.67.65-1.69.65-1.69,2.31q0,10.82,0,21.63c0,.38-.14.82.23,1.14s.8-.62,1.31-.23c.19.41.47.64.94.44a15.42,15.42,0,0,0,2.95-1.11c2.82-1,5.81-1.52,8.37-3.18.1,1.38.65,1.84,1.43,1.05s1-.25,1.54-.08c2.67.86,5.33,1.74,8,2.61-1.31-1.2-2.5-2.41-3.8-3.49a5,5,0,0,0-4.63-1.13c-.37.09-1.06.18-.74.93l-.34.27c-.51.09-1,.42-1.52-.12a1.83,1.83,0,0,0-1.78-1.22,5.85,5.85,0,0,0-4.63,1.8A14.52,14.52,0,0,1,469.55,293.31Zm-72.64-2c.64-.24.45.5.78.65a1.23,1.23,0,0,0,1.34-.12.38.38,0,0,0,.08-.36c-.2-.51-.67-.34-1.05-.39s-.74.38-1.17.2c.44-.95.14-1.5-.89-1.69a4.38,4.38,0,0,0-2.24.14,9.18,9.18,0,0,0-3.41,2.28,7.33,7.33,0,0,1-4.8,2.51c-.37-.79,0-1.59,0-2.38,0-6.87,0-13.73,0-20.59a2.8,2.8,0,0,0-.2-1.62c-1.66.21-1.58.47-1.58,2,0,7.14,0,14.28,0,21.42a2.47,2.47,0,0,0,.19,1.42c.6.18,1-.88,1.64-.3.19.3.41.53.82.38C389.87,293.66,393.48,292.76,396.91,291.35Zm42.77,44.73c.47-.3.95-.58,1.41-.9L490,301.9a3.28,3.28,0,0,0,1.46-1.4c-.36,0-.57-.06-.78-.06h-49a4.23,4.23,0,0,0-1.83.27,4.33,4.33,0,0,0-2.25-.24H388.2c-.43,0-1-.27-1.29.34a5.36,5.36,0,0,0,1.77,1.4q13.79,9.36,27.59,18.69,10.69,7.25,21.4,14.48C438.25,335.77,438.78,336.53,439.68,336.08Zm-.25,76.57c.13.87.63,1.06,1.47,1a19.52,19.52,0,0,0,9.08-3.34q13.49-9.24,26.93-18.51a20.54,20.54,0,0,0,3.36-2.49,6,6,0,0,0-1.85-1.45Q463.63,378,448.8,368.11c-3.12-2.06-6.14-4.29-9.42-6.1-.92-.47-1.42.35-2,.73q-17.77,11.86-35.5,23.79a27.23,27.23,0,0,0-4,2.81c.48.39.82.71,1.21,1q12.57,8.94,25.17,17.85a33.68,33.68,0,0,0,7.61,4.28,19.3,19.3,0,0,0,6.1,1.22C438.74,413.7,439.46,413.69,439.43,412.65Zm14.9-62.95a4.22,4.22,0,0,1,1.53-1.33l42.67-29.56,12-8.32c1.49-1,1.49-1,.91-2.81s-1.23-3.69-1.85-5.53-.58-1.71-2.26-1.72c-3.41,0-6.81.07-10.22,0a6.51,6.51,0,0,0-4,1.26q-26.15,17.89-52.34,35.72c-1.48,1-1.48,1-3,0l-16.22-11L384.7,301.47a4.14,4.14,0,0,0-2.42-1.05c-3.62,0-7.23,0-10.85,0a1.3,1.3,0,0,0-1.49,1.07c-.65,2.13-1.39,4.22-2.08,6.33-.51,1.55-.5,1.55.8,2.5l.51.37q25.9,18.44,51.79,36.89c.58.41,1.33.7,1.67,1.53l-41.17,28.34a3.92,3.92,0,0,0,1.53,1.39c3.85,2.75,7.69,5.5,11.56,8.22,2.2,1.56,1.58,1.37,3.55.06Q417.77,374,437.41,360.8c1.62-1.09,1.63-1.08,3.19,0l39.9,26.56c1.44,1,1.45.95,2.86,0q6.11-4.17,12.21-8.37a3.43,3.43,0,0,0,1.42-1.25Zm-1.55-71.12.39,0a17,17,0,0,1,.69-1.71c.52-.92,1.07-.93,1.73-.09a4.08,4.08,0,0,1,.57.87,2.57,2.57,0,0,0,2.66,1.6c1.39,0,2.78,0,4.17,0,1,0,1.38-.27,1.35-1.31-.06-2.22,0-4.45,0-6.68,0-1.27-.19-2.54,1.57-2.85a1.54,1.54,0,0,0,.9-.82,1.26,1.26,0,0,1,1.69-.73,4.55,4.55,0,0,0,3.91-1,5.23,5.23,0,0,1,6.57-.26,1.23,1.23,0,0,0,1.63,0,5.2,5.2,0,0,1,6.4.21c.73.54,1.61,1.26,2.43,1.06,2-.49,3.22.66,4.7,1.61a1.9,1.9,0,0,1,1.08,1.93c0,2.5,0,5,0,7.51,0,1,.3,1.41,1.31,1.38,1.39,0,2.78,0,4.17,0,1.22,0,1.29-.13.89-1.38-1-3-2-6.08-3-9.1a21.61,21.61,0,0,0-2.87-5.54c-3.39-4.76-7.9-7.6-13.86-7.61q-40.36,0-80.74,0a29.23,29.23,0,0,0-5.61.45c-6.91,1.32-12,4.88-14.4,11.77-1.1,3.22-2.12,6.47-3.15,9.71-.16.5-.58,1-.16,1.77,1.21,0,2.51,0,3.82,0,.9,0,1.24-.38,1.23-1.25,0-2,0-4,0-6.05,0-1.43-.18-2.81,1.69-3.22a1.2,1.2,0,0,0,.75-.68c.34-.86,1-.91,1.7-.77a5.08,5.08,0,0,0,4.1-1.1,5.19,5.19,0,0,1,6.23-.2,1.44,1.44,0,0,0,1.82,0,5.25,5.25,0,0,1,6.24.2,5,5,0,0,0,4.3,1.06,1.14,1.14,0,0,1,1.54.61,1.38,1.38,0,0,0,.74.71c2.1.5,1.78,2.13,1.76,3.63,0,.84,0,1.67,0,2.51.08,1.37-.6,3.1.29,4s2.77.28,4.2.39c1.78.14,3.35-.15,4-2.12a1.51,1.51,0,0,1,.23-.35c.66-.84,1.24-.84,1.75.06.31.54.51,1.14.77,1.72a24.88,24.88,0,0,0,1.07-4.31c.29-1.5,1.07-2.51,1.74-2.25,1.09.41.86,1.49.88,2.34,0,2.78,0,5.56,0,8.35a42.66,42.66,0,0,0,.14,5.42c0,.39,0,.87.69.81a4.43,4.43,0,0,0,.29-2.44q0-9.6,0-19.2a4,4,0,0,1,.38-2.22,1.66,1.66,0,0,1,1.51-.94,1.49,1.49,0,0,1,1.3,1.2,8.26,8.26,0,0,1,.23,2.48v21.5a16.72,16.72,0,0,0,.09,1.87.67.67,0,0,0,.69.64.63.63,0,0,0,.51-.59,18.16,18.16,0,0,0,.14-2.08q-.09-11.88-.2-23.78a5.92,5.92,0,0,1,.29-2.47c.32-.73.75-1.41,1.68-1.26a1.85,1.85,0,0,1,1.57,1.48,8.3,8.3,0,0,1,.09,1.87v26.71a5.46,5.46,0,0,0,.24,2.27.8.8,0,0,0,.76.59c.41,0,.59-.29.7-.64a6.56,6.56,0,0,0,.15-2.07V264.94a3.51,3.51,0,0,1,.47-2.41,1.84,1.84,0,0,1,1.55-.9,1.61,1.61,0,0,1,1.41,1.36,8.91,8.91,0,0,1,.15,2.07c0,8.14,0,16.28,0,24.42,0,.78-.53,2.18.76,2.15.95,0,.56-1.38.57-2.15,0-7.23,0-14.47,0-21.7a7.3,7.3,0,0,1,.17-2.28c.23-.7.58-1.33,1.39-1.36a1.71,1.71,0,0,1,1.69,1.3,6,6,0,0,1,.21,2.06q0,9.71,0,19.41a3,3,0,0,0,.52,2.26,5.87,5.87,0,0,0,.59-3.41c0-3.82,0-7.65,0-11.47,0-.85-.23-2.09.93-2.23s1.33,1,1.56,1.89c.12.47.21.95.29,1.43C452.39,276.44,452.58,277.51,452.78,278.58Zm59.77,32.66c-3.69,2-54.14,37.18-55.21,38.47.55.4,1.09.83,1.67,1.2q18.21,11.94,36.43,23.85a10,10,0,0,0,3,1.79c1.28.25,2.14-1.1,3.14-1.78,5.34-3.63,10.74-7.16,15.93-11,3.83-2.85,5.62-6.76,6.06-11.4a31.64,31.64,0,0,0-1.7-13.12c-2.14-6.39-4.22-12.79-6.34-19.18C514.59,317.16,513.59,314.28,512.55,311.24Zm-145.42,0a2,2,0,0,0-.87,1.35q-5.2,15.62-10.4,31.23a16,16,0,0,0,.74,12,26.73,26.73,0,0,0,8.67,10.49c4.36,3.22,8.86,6.24,13.23,9.45a2,2,0,0,0,2.74,0c2.31-1.67,4.68-3.26,7-4.87q15-10.35,30-20.69c.5-.34,1.13-.55,1.43-1.44Zm56.11-33.54c-2.11,2.65-2.11,2.65-5.77,2.66h-2.09c-1.68,0-1.71,0-1.71,1.73,0,4.38,0,8.77,0,13.15,0,.59.2,1.24-.34,1.82-3.43-1.12-6.84-2.26-10.27-3.35-1.49-.47-3-1.35-4.61-.53a1,1,0,0,1-.79-.11,3,3,0,0,0-2.61.08c-3.23,1.07-6.47,2.11-9.71,3.15-2.41.77-2.51.71-2.51-1.72,0-4.25,0-8.49,0-12.73,0-1-.27-1.58-1.41-1.49-.83.07-1.67,0-2.5,0-1.88,0-1.9,0-2.48,1.75q-2.39,7.11-4.74,14.24c-.19.57-.59,1.13-.29,1.86H508a2.55,2.55,0,0,0,0-.69c-1.76-5.35-3.54-10.68-5.27-16a1.48,1.48,0,0,0-1.7-1.13c-1.4,0-2.79,0-4.18,0-1.64,0-1.66,0-1.66,1.78,0,4.17,0,8.34,0,12.52a2.8,2.8,0,0,1-.25,1.86c-3.55-1.17-7.1-2.35-10.66-3.5-1.35-.44-2.69-1.21-4.18-.42a.72.72,0,0,1-.61,0c-1.33-.88-2.53-.11-3.75.28-3.17,1-6.33,2.08-9.51,3.1a3.13,3.13,0,0,1-1.89.37v-2.48c0-4,0-8.07,0-12.11,0-.84,0-1.52-1.18-1.43s-2.23,0-3.34,0c-2,.08-3.75-.25-4.68-2.31,0-.09-.23-.11-.49-.23a12,12,0,0,0-.74,2.55c-.17.51-.18,1.2-.93,1.17s-.76-.72-.9-1.24-.18-1.1-.32-1.63c-.43-1.56-.26-3.27-1.17-5a10.64,10.64,0,0,0-.13,1.09q0,5.43,0,10.85a16.84,16.84,0,0,1-.33,3.32,1.34,1.34,0,0,1-1.49,1.16,1.26,1.26,0,0,1-1.25-1.18,11,11,0,0,1-.16-2.07c0-6.4,0-12.8,0-19.2,0-.79.55-2.19-.75-2.17-.9,0-.56,1.36-.57,2.13,0,7.38,0,14.75,0,22.13a8.83,8.83,0,0,1-.09,1.86,1.65,1.65,0,0,1-1.87,1.31c-.89,0-1.18-.64-1.29-1.37a10.33,10.33,0,0,1-.14-1.66q0-12.53.11-25a7,7,0,0,0-.15-1.44.67.67,0,0,0-.56-.55.73.73,0,0,0-.79.54,9.65,9.65,0,0,0-.14,1.86q0,13.47,0,26.93a5.64,5.64,0,0,1-.22,2.27,1.76,1.76,0,0,1-1.74,1.25,1.69,1.69,0,0,1-1.63-1.38,9,9,0,0,1-.17-2.07q0-13.46,0-26.92a11.6,11.6,0,0,0-.12-1.87.76.76,0,0,0-.75-.61.68.68,0,0,0-.68.65,11.55,11.55,0,0,0-.12,1.86q0,12.1,0,24.22a14.61,14.61,0,0,1-.06,1.87c-.1.82-.43,1.48-1.43,1.46a1.66,1.66,0,0,1-1.8-1.4,11.74,11.74,0,0,1-.06-1.88V267.9c0-.63,0-1.26-.07-1.88,0-.37-.23-.69-.64-.67s-.55.39-.58.74a14.34,14.34,0,0,0-.05,1.46q0,9.6,0,19.2a13.06,13.06,0,0,1-.14,2.08,1.28,1.28,0,0,1-1.41,1.23c-.83,0-1.2-.47-1.39-1.26a16.14,16.14,0,0,1-.28-3.73V273.63a3.36,3.36,0,0,0-.84,2.09c-.2,1.16-.28,2.35-.57,3.49-.21.81,0,2.17-1.08,2.24s-.89-1.34-1.2-2.11C423.69,278.79,423.8,278.1,423.24,277.67Zm-13.33,15.66V269.5c0-.74-.14-1.14-1.06-1a5.29,5.29,0,0,1-3.7-1.1,12.16,12.16,0,0,0-1.41-.87,4.28,4.28,0,0,0-4,.29c-1.28.66-1.07,1.81-1.07,2.9q0,8.76,0,17.51c0,.6,0,1.79.19,1.73a7.12,7.12,0,0,1,7.43,2A7.76,7.76,0,0,0,409.91,293.33Zm81.41-.64V267.84a6.12,6.12,0,0,1-5.15-1.34,5.36,5.36,0,0,0-.89-.53c-2.66-1.15-5.07.41-5.07,3.27q0,8.75,0,17.5v1.93a6.28,6.28,0,0,1,6.66.94c.65.51,1.25,1.09,1.87,1.65A5.18,5.18,0,0,0,491.32,292.69Zm-12.06-4.1c0-6.92,0-13.53,0-20.13a2.38,2.38,0,0,0-1.77-2.49,4,4,0,0,0-4,.38,6.68,6.68,0,0,1-5.38,1.55v24.89a6.37,6.37,0,0,0,3-1.92C473.38,288.65,475.85,287.39,479.26,288.59Zm-81.87.47c.12-.22.18-.28.18-.34,0-6.66,0-13.33.06-20a2.1,2.1,0,0,0-1.38-2.09,3.82,3.82,0,0,0-4,.07,8.19,8.19,0,0,1-5.63,1.86v24.78a8.61,8.61,0,0,0,3.34-2.29C392.05,289.06,394.41,288,397.39,289.06ZM492.6,269.3c-.09.13-.15.18-.15.24,0,7.55,0,15.1-.07,22.65a2.12,2.12,0,0,0,1.58,2.08c.13-.16.21-.2.21-.25,0-7.69,0-15.38.06-23.07C494.23,269.73,493.52,269.46,492.6,269.3Zm-81.54.71a2.31,2.31,0,0,0-.14.5c0,7.37,0,14.73,0,22.09a2.11,2.11,0,0,0,1.53,2.17,5.55,5.55,0,0,0,.15-2.12c0-4.17,0-8.34,0-12.51,0-2.85,0-5.69,0-8.54C412.6,270.59,412.26,270,411.06,270Zm80.31,23.93c-.1-.06-.2-.17-.31-.19s-.31.05-.32.11c-.05.24.15.28.32.26A.76.76,0,0,0,491.37,293.94Zm.79.4s-.08-.13-.13-.14-.1.08-.15.12.1.13.15.13S492.13,294.38,492.16,294.34Z" transform="translate(-37.32 -244.06)"/><path class="cls-4" d="M454.33,349.7l42.66,28a3.43,3.43,0,0,1-1.42,1.25q-6.09,4.2-12.21,8.37c-1.41,1-1.42,1-2.86,0l-39.9-26.56c-1.56-1-1.57-1.05-3.19,0Q417.76,374,398.1,387.12c-2,1.31-1.35,1.5-3.55-.06-3.87-2.72-7.71-5.47-11.56-8.22a3.92,3.92,0,0,1-1.53-1.39l41.17-28.34c-.34-.83-1.09-1.12-1.67-1.53q-25.89-18.46-51.79-36.89l-.51-.37c-1.3-.95-1.31-.95-.8-2.5.69-2.11,1.43-4.2,2.08-6.33a1.3,1.3,0,0,1,1.49-1.07c3.62,0,7.23,0,10.85,0a4.14,4.14,0,0,1,2.42,1.05l36.78,24.87,16.22,11c1.54,1,1.54,1.05,3,0q26.17-17.85,52.34-35.72a6.51,6.51,0,0,1,4-1.26c3.41.1,6.81,0,10.22,0,1.68,0,1.69,0,2.26,1.72s1.23,3.68,1.85,5.53.58,1.77-.91,2.81l-12,8.32-42.67,29.56A4.22,4.22,0,0,0,454.33,349.7Z" transform="translate(-37.32 -244.06)"/><path class="cls-5" d="M452.78,278.58c-.2-1.07-.39-2.14-.59-3.2-.08-.48-.17-1-.29-1.43-.23-.88-.48-2-1.56-1.89s-.92,1.38-.93,2.23c0,3.82,0,7.65,0,11.47a5.87,5.87,0,0,1-.59,3.41,3,3,0,0,1-.52-2.26q0-9.71,0-19.41a6,6,0,0,0-.21-2.06,1.71,1.71,0,0,0-1.69-1.3c-.81,0-1.16.66-1.39,1.36a7.3,7.3,0,0,0-.17,2.28c0,7.23,0,14.47,0,21.7,0,.77.38,2.12-.57,2.15-1.29,0-.75-1.37-.76-2.15,0-8.14,0-16.28,0-24.42a8.91,8.91,0,0,0-.15-2.07,1.61,1.61,0,0,0-1.41-1.36,1.84,1.84,0,0,0-1.55.9,3.51,3.51,0,0,0-.47,2.41v26.92a6.56,6.56,0,0,1-.15,2.07c-.11.35-.29.64-.7.64a.8.8,0,0,1-.76-.59,5.46,5.46,0,0,1-.24-2.27V265a8.3,8.3,0,0,0-.09-1.87,1.85,1.85,0,0,0-1.57-1.48c-.93-.15-1.36.53-1.68,1.26a5.92,5.92,0,0,0-.29,2.47q.1,11.89.2,23.78a18.16,18.16,0,0,1-.14,2.08.63.63,0,0,1-.51.59.67.67,0,0,1-.69-.64,16.72,16.72,0,0,1-.09-1.87v-21.5a8.26,8.26,0,0,0-.23-2.48,1.49,1.49,0,0,0-1.3-1.2,1.66,1.66,0,0,0-1.51.94,4,4,0,0,0-.38,2.22q0,9.6,0,19.2a4.43,4.43,0,0,1-.29,2.44c-.64.06-.64-.42-.69-.81a42.66,42.66,0,0,1-.14-5.42c0-2.79,0-5.57,0-8.35,0-.85.21-1.93-.88-2.34-.67-.26-1.45.75-1.74,2.25a24.88,24.88,0,0,1-1.07,4.31c-.26-.58-.46-1.18-.77-1.72-.51-.9-1.09-.9-1.75-.06a1.51,1.51,0,0,0-.23.35c-.68,2-2.25,2.26-4,2.12-1.43-.11-3.22.63-4.2-.39s-.21-2.66-.29-4c0-.84,0-1.67,0-2.51,0-1.5.34-3.13-1.76-3.63a1.38,1.38,0,0,1-.74-.71,1.14,1.14,0,0,0-1.54-.61,5,5,0,0,1-4.3-1.06,5.25,5.25,0,0,0-6.24-.2,1.44,1.44,0,0,1-1.82,0,5.19,5.19,0,0,0-6.23.2,5.08,5.08,0,0,1-4.1,1.1c-.71-.14-1.36-.09-1.7.77a1.2,1.2,0,0,1-.75.68c-1.87.41-1.73,1.79-1.69,3.22,0,2,0,4,0,6.05,0,.87-.33,1.27-1.23,1.25-1.31,0-2.61,0-3.82,0-.42-.78,0-1.27.16-1.77,1-3.24,2.05-6.49,3.15-9.71,2.36-6.89,7.49-10.45,14.4-11.77a29.23,29.23,0,0,1,5.61-.45q40.37,0,80.74,0c6,0,10.47,2.85,13.86,7.61a21.61,21.61,0,0,1,2.87,5.54c1,3,2,6.06,3,9.1.4,1.25.33,1.35-.89,1.38-1.39,0-2.78,0-4.17,0-1,0-1.33-.41-1.31-1.38,0-2.5,0-5,0-7.51a1.9,1.9,0,0,0-1.08-1.93c-1.48-.95-2.68-2.1-4.7-1.61-.82.2-1.7-.52-2.43-1.06a5.2,5.2,0,0,0-6.4-.21,1.23,1.23,0,0,1-1.63,0,5.23,5.23,0,0,0-6.57.26,4.55,4.55,0,0,1-3.91,1,1.26,1.26,0,0,0-1.69.73,1.54,1.54,0,0,1-.9.82c-1.76.31-1.59,1.58-1.57,2.85,0,2.23,0,4.46,0,6.68,0,1-.39,1.34-1.35,1.31-1.39-.05-2.78,0-4.17,0a2.57,2.57,0,0,1-2.66-1.6,4.08,4.08,0,0,0-.57-.87c-.66-.84-1.21-.83-1.73.09a17,17,0,0,0-.69,1.71Z" transform="translate(-37.32 -244.06)"/><path class="cls-2" d="M512.55,311.24c1,3,2,5.92,3,8.81,2.12,6.39,4.2,12.79,6.34,19.18a31.64,31.64,0,0,1,1.7,13.12c-.44,4.64-2.23,8.55-6.06,11.4-5.19,3.86-10.59,7.39-15.93,11-1,.68-1.86,2-3.14,1.78a10,10,0,0,1-3-1.79Q477.22,362.85,459,350.91c-.58-.37-1.12-.8-1.67-1.2C458.41,348.42,508.86,313.27,512.55,311.24Zm-1.63,53.42a13.12,13.12,0,0,1,.54-1.91,19.12,19.12,0,0,1,1.06-1.79,6.86,6.86,0,0,0,1.06-3.55,2.92,2.92,0,0,0-3-3.25,12.82,12.82,0,0,0-2.89.28c-1.32.23-2.16-.14-2.55-1.23a5.36,5.36,0,0,1,.47-5,2.12,2.12,0,0,1,3.52-.42c.63.55,1.17,1.21,1.84,1.7,1.85,1.33,3.54,1,4.84-.85a7.72,7.72,0,0,0,1.42-4.29,4.64,4.64,0,0,1,1.21-3.39,5.18,5.18,0,0,1-3.08-2.3,7.23,7.23,0,0,0-3.33-2.43,3,3,0,0,0-4.22,1.85,10.53,10.53,0,0,0-.57,2.42c-.3,1.84-1.24,2.43-3.11,2.18a5.22,5.22,0,0,1-4-3c-.78-1.48-.44-2.52,1.06-3.23a13.3,13.3,0,0,0,2.42-1.2,2.84,2.84,0,0,0,.73-4.35,6.69,6.69,0,0,0-3.25-2.52,5.84,5.84,0,0,1-3.08-2.22,5,5,0,0,1-3,1.82,7.28,7.28,0,0,0-3.25,1.81c-1.94,1.8-1.85,3.64.27,5.21.73.54,1.58.9,2.31,1.42a1.62,1.62,0,0,1,.42,2.66,11.56,11.56,0,0,1-1.91,1.92c-1.84,1.45-3.45.93-4.09-1.31a12.94,12.94,0,0,0-.88-2.77,3,3,0,0,0-4.19-1.55,6.82,6.82,0,0,0-3.19,2.59,5.81,5.81,0,0,1-2.87,2.65,5.34,5.34,0,0,1,1.39,3.44,6.14,6.14,0,0,0,1.65,3.75c1.48,1.61,2.86,1.76,4.55.38.75-.61,1.34-1.4,2-2.08A1.89,1.89,0,0,1,490,346a5.76,5.76,0,0,1,2,6c-.51,1.95-1.26,2.49-3.27,2.36a17.41,17.41,0,0,0-2.5-.08,2.65,2.65,0,0,0-2.75,3.17,8.71,8.71,0,0,0,1.23,3.73c.57,1,1.13,2.05.5,3.47a9.05,9.05,0,0,1,5.16.19,7,7,0,0,0,3.9,0c2.14-.63,2.77-1.88,1.88-4-.35-.82-.92-1.55-1.3-2.37a1.92,1.92,0,0,1,1.14-2.87,6.06,6.06,0,0,1,4.85.19c1.43.57,1.72,1.41,1.11,2.81-.33.76-.76,1.49-1,2.28a2.93,2.93,0,0,0,2.42,4.17,8.24,8.24,0,0,0,4.12-.21A4.62,4.62,0,0,1,510.92,364.66Z" transform="translate(-37.32 -244.06)"/><path class="cls-6" d="M367.13,311.21l52.59,37.47c-.3.89-.93,1.1-1.43,1.44q-15,10.35-30,20.69c-2.34,1.61-4.71,3.2-7,4.87a2,2,0,0,1-2.74,0c-4.37-3.21-8.87-6.23-13.23-9.45a26.73,26.73,0,0,1-8.67-10.49,16,16,0,0,1-.74-12q5.19-15.62,10.4-31.23A2,2,0,0,1,367.13,311.21ZM359.42,339a5.44,5.44,0,0,1,1.38,3.39,6.5,6.5,0,0,0,1.71,4,3,3,0,0,0,4.28.53,13.15,13.15,0,0,0,2.21-2.2c1.07-1.1,2-1.14,3.06-.1a5.64,5.64,0,0,1,1.78,5.86c-.45,1.74-1.18,2.29-3,2.24a21.81,21.81,0,0,0-2.91-.08,2.59,2.59,0,0,0-2.59,2.91,7.3,7.3,0,0,0,1,3.58,4.89,4.89,0,0,1,.85,3.93,9.37,9.37,0,0,1,5,.22,8.36,8.36,0,0,0,3.52.12c2.45-.39,3.31-1.94,2.33-4.21-.33-.77-.83-1.45-1.21-2.19-.69-1.37-.4-2.26,1-2.88a6.18,6.18,0,0,1,5.43.38c.95.47,1.11,1.25.67,2.32-.37.9-.88,1.74-1.17,2.67a2.92,2.92,0,0,0,2.25,4,6.6,6.6,0,0,0,3.71,0A10.15,10.15,0,0,1,393,363a5.26,5.26,0,0,1,1.17-3.19,6.76,6.76,0,0,0,1.32-4.1,2.84,2.84,0,0,0-2.91-3.12,9.15,9.15,0,0,0-2.89.29,2.14,2.14,0,0,1-2.54-.94,5.7,5.7,0,0,1,.52-5.53,2,2,0,0,1,3.25-.22,26.13,26.13,0,0,0,2,1.81c1.81,1.27,3.39,1,4.69-.8a7.54,7.54,0,0,0,1.5-4.27,5,5,0,0,1,1.2-3.54,4.77,4.77,0,0,1-2.93-2.13,7.44,7.44,0,0,0-2.88-2.36c-2.42-1.14-4.22-.38-5,2.16-.25.79-.3,1.64-.54,2.43a2.16,2.16,0,0,1-2.69,1.7,5.42,5.42,0,0,1-4.23-3c-.77-1.54-.48-2.46,1.07-3.21a12.13,12.13,0,0,0,2.57-1.35,2.78,2.78,0,0,0,.68-4.05,6.48,6.48,0,0,0-3.16-2.62,7.45,7.45,0,0,1-3.37-2.33,4.56,4.56,0,0,1-2.85,1.78,7.24,7.24,0,0,0-3.43,1.89c-1.92,1.85-1.82,3.64.31,5.23.61.46,1.32.77,2,1.18,1.49,1,1.64,1.87.47,3.23a11.81,11.81,0,0,1-1.66,1.58c-1.75,1.35-3.36.84-4-1.25a24.94,24.94,0,0,0-.77-2.59c-.9-2.09-2.52-2.67-4.6-1.71a7.34,7.34,0,0,0-3.21,2.88A4.91,4.91,0,0,1,359.42,339Z" transform="translate(-37.32 -244.06)"/><path class="cls-5" d="M423.24,277.67c.56.43.45,1.12.67,1.67.31.77,0,2.18,1.2,2.11s.87-1.43,1.08-2.24c.29-1.14.37-2.33.57-3.49a3.36,3.36,0,0,1,.84-2.09v11.44a16.14,16.14,0,0,0,.28,3.73c.19.79.56,1.24,1.39,1.26a1.28,1.28,0,0,0,1.41-1.23,13.06,13.06,0,0,0,.14-2.08q0-9.6,0-19.2a14.34,14.34,0,0,1,.05-1.46c0-.35.18-.72.58-.74s.62.3.64.67c0,.62.07,1.25.07,1.88v21.7a11.74,11.74,0,0,0,.06,1.88,1.66,1.66,0,0,0,1.8,1.4c1,0,1.33-.64,1.43-1.46a14.61,14.61,0,0,0,.06-1.87q0-12.12,0-24.22a11.55,11.55,0,0,1,.12-1.86.68.68,0,0,1,.68-.65.76.76,0,0,1,.75.61,11.6,11.6,0,0,1,.12,1.87q0,13.45,0,26.92a9,9,0,0,0,.17,2.07,1.69,1.69,0,0,0,1.63,1.38,1.76,1.76,0,0,0,1.74-1.25,5.64,5.64,0,0,0,.22-2.27q0-13.47,0-26.93a9.65,9.65,0,0,1,.14-1.86.73.73,0,0,1,.79-.54.67.67,0,0,1,.56.55,7,7,0,0,1,.15,1.44q0,12.51-.11,25a10.33,10.33,0,0,0,.14,1.66c.11.73.4,1.33,1.29,1.37a1.65,1.65,0,0,0,1.87-1.31,8.83,8.83,0,0,0,.09-1.86c0-7.38,0-14.75,0-22.13,0-.77-.33-2.12.57-2.13,1.3,0,.75,1.38.75,2.17,0,6.4,0,12.8,0,19.2a11,11,0,0,0,.16,2.07,1.26,1.26,0,0,0,1.25,1.18,1.34,1.34,0,0,0,1.49-1.16,16.84,16.84,0,0,0,.33-3.32q0-5.41,0-10.85a10.64,10.64,0,0,1,.13-1.09c.91,1.72.74,3.43,1.17,5,.14.53.17,1.1.32,1.63s.2,1.21.9,1.24.76-.66.93-1.17a12,12,0,0,1,.74-2.55c.26.12.45.14.49.23.93,2.06,2.69,2.39,4.68,2.31,1.11,0,2.23.06,3.34,0s1.18.59,1.18,1.43c0,4,0,8.07,0,12.11v2.48a3.13,3.13,0,0,0,1.89-.37c3.18-1,6.34-2.08,9.51-3.1,1.22-.39,2.42-1.16,3.75-.28a.72.72,0,0,0,.61,0c1.49-.79,2.83,0,4.18.42,3.56,1.15,7.11,2.33,10.66,3.5a2.8,2.8,0,0,0,.25-1.86c0-4.18,0-8.35,0-12.52,0-1.75,0-1.76,1.66-1.78,1.39,0,2.78,0,4.18,0a1.48,1.48,0,0,1,1.7,1.13c1.73,5.36,3.51,10.69,5.27,16a2.55,2.55,0,0,1,0,.69H371.39c-.3-.73.1-1.29.29-1.86q2.34-7.12,4.74-14.24c.58-1.74.6-1.73,2.48-1.75.83,0,1.67.06,2.5,0,1.14-.09,1.42.46,1.41,1.49,0,4.24,0,8.48,0,12.73,0,2.43.1,2.49,2.51,1.72,3.24-1,6.48-2.08,9.71-3.15a3,3,0,0,1,2.61-.08,1,1,0,0,0,.79.11c1.66-.82,3.12.06,4.61.53,3.43,1.09,6.84,2.23,10.27,3.35.54-.58.33-1.23.34-1.82,0-4.38,0-8.77,0-13.15,0-1.7,0-1.71,1.71-1.73h2.09C421.13,280.32,421.13,280.32,423.24,277.67Z" transform="translate(-37.32 -244.06)"/><path class="cls-6" d="M439.43,412.65c0,1-.69,1.05-1.41,1a19.3,19.3,0,0,1-6.1-1.22,33.68,33.68,0,0,1-7.61-4.28q-12.62-8.88-25.17-17.85c-.39-.27-.73-.59-1.21-1a27.23,27.23,0,0,1,4-2.81q17.72-11.94,35.5-23.79c.56-.38,1.06-1.2,2-.73v3.84a3.33,3.33,0,0,1-2.43,1.79,8.14,8.14,0,0,0-3.51,1.75c-2.24,1.91-2.17,4,.22,5.65.68.48,1.47.8,2.15,1.28a1.56,1.56,0,0,1,.48,2.48,8.25,8.25,0,0,1-1.89,1.93c-1.82,1.49-3.43,1-4.12-1.22a13.33,13.33,0,0,0-1-3,2.93,2.93,0,0,0-3.88-1.47,7,7,0,0,0-3.66,3A4.84,4.84,0,0,1,419,380.4a5.31,5.31,0,0,1,1.47,3.54,6.26,6.26,0,0,0,1.37,3.44,3.18,3.18,0,0,0,5,.64c.69-.57,1.22-1.32,1.87-2,1.05-1,1.75-1.05,2.89-.1a5.61,5.61,0,0,1,2.11,4.37c.06,2.86-1.22,3.95-4.14,3.67a7.26,7.26,0,0,0-2.28,0,2.54,2.54,0,0,0-2.3,2.75,7.79,7.79,0,0,0,1.21,4.15,4.17,4.17,0,0,1,.63,3.4,15.24,15.24,0,0,1,5.29.37,8.4,8.4,0,0,0,3.53,0c2.11-.35,2.95-1.8,2.22-3.81a16.62,16.62,0,0,0-1.17-2.2c-1-1.74-.62-2.67,1.23-3.39a2.39,2.39,0,0,1,1.42-.19c0,2.37,0,4.74,0,7.11h0l0,9v1.4Z" transform="translate(-37.32 -244.06)"/><path class="cls-2" d="M439.43,412.65v-1.4q0-4.5,0-9,0-3.56,0-7.11a5.5,5.5,0,0,1,3.05.44c1.43.64,1.73,1.38,1.07,2.81a14.68,14.68,0,0,0-1.14,2.68,2.8,2.8,0,0,0,1.78,3.53,5.89,5.89,0,0,0,4.07.29,8.66,8.66,0,0,1,4.37-.5,6.63,6.63,0,0,1,1.45-3.5,6.3,6.3,0,0,0,1.09-3.11c.23-2.5-1-3.85-3.49-3.79-.89,0-1.78.24-2.68.34a2,2,0,0,1-2.3-1.36,5.4,5.4,0,0,1,.55-5c1-1.43,2.19-1.55,3.49-.38.57.51,1.07,1.11,1.67,1.57,2,1.51,3.74,1.19,5.12-.89a7.39,7.39,0,0,0,1.26-3.72,7.71,7.71,0,0,1,1-3.81,5,5,0,0,1-2.83-2.22,6.73,6.73,0,0,0-3.7-2.57,2.94,2.94,0,0,0-3.85,1.93,12.92,12.92,0,0,0-.59,2.62,2.31,2.31,0,0,1-2.86,2.06,5.2,5.2,0,0,1-4.32-3.17c-.69-1.46-.36-2.34,1.07-3.06a24.36,24.36,0,0,0,2.23-1.11c1.94-1.24,2.19-3,.75-4.75a6.79,6.79,0,0,0-3.16-2.32,6.54,6.54,0,0,1-3.11-2.31V362c3.28,1.81,6.3,4,9.42,6.1q14.83,9.83,29.62,19.72a6,6,0,0,1,1.85,1.45,20.54,20.54,0,0,1-3.36,2.49q-13.44,9.28-26.93,18.51a19.52,19.52,0,0,1-9.08,3.34C440.06,413.71,439.56,413.52,439.43,412.65Z" transform="translate(-37.32 -244.06)"/><path class="cls-6" d="M439.68,336.08c-.9.45-1.43-.31-2-.71q-10.71-7.22-21.4-14.48-13.8-9.34-27.59-18.69a5.36,5.36,0,0,1-1.77-1.4c.31-.61.86-.34,1.29-.34h49.4a4.33,4.33,0,0,1,2.25.24l-.07,0c-1.69.29-2,1.79-2.51,3a35.81,35.81,0,0,0-1.93,8.07c-.56-1.69-1-3.16-1.53-4.57a10,10,0,0,0-4.89-5.47c-.45-.23-1-.65-1.54-.2s0,.9.13,1.34a42.82,42.82,0,0,1,1.94,10.19c-4.3-5.31-7.72-7.46-11.13-7,.13.61.69.85,1.05,1.25,2.89,3.16,5.42,6.53,6.23,10.88.21,1.13.87,1,1.7.66a27.61,27.61,0,0,1,12.47-1.76v1.11c-.06.84-.63,1-1.31.94a30,30,0,0,0-4.73.42,23.61,23.61,0,0,0-4.86.95c-.51.18-1.19.49-1,1.1s.87.35,1.37.22c.34-.1.66-.21,1-.28,3.16-.65,6.3-1.45,9.57-.93l0,1.79c-.62,0-1.24.1-1.87.11a41,41,0,0,0-6.81.8,7.89,7.89,0,0,0-3.28,1.27,1.15,1.15,0,0,0,0,2.06,6.1,6.1,0,0,0,2.08.92,41.61,41.61,0,0,0,9.87,1.28Z" transform="translate(-37.32 -244.06)"/><path class="cls-2" d="M439.68,336.08q0-3.61.05-7.22a51,51,0,0,0,8.44-.91,13.51,13.51,0,0,0,2.93-1c1.43-.73,1.43-1.83,0-2.6a10.34,10.34,0,0,0-3.12-1.09,50.59,50.59,0,0,0-8.24-.84l0-1.79a5.65,5.65,0,0,1,2.05-.12,43,43,0,0,1,8.36,1.41c.37.12.8.28,1.11-.35a3.12,3.12,0,0,0-2-1.21,30.5,30.5,0,0,0-8.15-1.31c-.68,0-1.24,0-1.39-.84V317.1a29,29,0,0,1,13.15,2.29c.84-5.49,4-9.61,7.66-13.47-4.9.51-8.71,2.64-11.17,7a48.59,48.59,0,0,1,2.31-11.5,5.56,5.56,0,0,0-3.56,1.41c-2.67,2-3.57,5.11-4.69,8.12-.84-3.6-1.26-7.28-3.69-10.23l.07,0a4.23,4.23,0,0,1,1.83-.27h49c.21,0,.42,0,.78.06a3.28,3.28,0,0,1-1.46,1.4l-48.88,33.28C440.63,335.5,440.15,335.78,439.68,336.08Z" transform="translate(-37.32 -244.06)"/><path class="cls-3" d="M409.91,293.33A7.76,7.76,0,0,1,406.3,291a7.12,7.12,0,0,0-7.43-2c-.2.06-.18-1.13-.19-1.73q0-8.76,0-17.51c0-1.09-.21-2.24,1.07-2.9a4.28,4.28,0,0,1,4-.29,12.16,12.16,0,0,1,1.41.87,5.29,5.29,0,0,0,3.7,1.1c.92-.14,1.1.26,1.06,1v23.83Z" transform="translate(-37.32 -244.06)"/><path class="cls-3" d="M491.32,292.69a5.18,5.18,0,0,1-2.59-1.43c-.62-.56-1.22-1.14-1.87-1.65a6.28,6.28,0,0,0-6.66-.94v-1.93q0-8.75,0-17.5c0-2.86,2.41-4.42,5.07-3.27a5.36,5.36,0,0,1,.89.53,6.12,6.12,0,0,0,5.15,1.34Z" transform="translate(-37.32 -244.06)"/><path class="cls-3" d="M479.26,288.59c-3.41-1.2-5.88.06-8.07,2.28a6.37,6.37,0,0,1-3,1.92V267.9a6.68,6.68,0,0,0,5.38-1.55,4,4,0,0,1,4-.38,2.38,2.38,0,0,1,1.77,2.49C479.23,275.06,479.26,281.67,479.26,288.59Z" transform="translate(-37.32 -244.06)"/><path class="cls-4" d="M397.39,289.06c-3-1.07-5.34,0-7.41,2a8.61,8.61,0,0,1-3.34,2.29V268.57a8.19,8.19,0,0,0,5.63-1.86,3.82,3.82,0,0,1,4-.07,2.1,2.1,0,0,1,1.38,2.09c0,6.66,0,13.33-.06,20C397.57,288.78,397.51,288.84,397.39,289.06Z" transform="translate(-37.32 -244.06)"/><path class="cls-6" d="M466.8,294.12c-.51-.39-.82.43-1.31.23s-.23-.76-.23-1.14q0-10.81,0-21.63c0-1.66,0-1.66,1.69-2.31.43.36.25.87.25,1.31,0,7,0,14,0,21,0,.92-.48,1.68-.43,2.56Z" transform="translate(-37.32 -244.06)"/><path class="cls-6" d="M492.6,269.3c.92.16,1.63.43,1.63,1.65,0,7.69,0,15.38-.06,23.07,0,.05-.08.09-.21.25a2.12,2.12,0,0,1-1.58-2.08c0-7.55,0-15.1.07-22.65C492.45,269.48,492.51,269.43,492.6,269.3Z" transform="translate(-37.32 -244.06)"/><path class="cls-6" d="M385.57,294.54c-.67-.58-1,.48-1.64.3a2.47,2.47,0,0,1-.19-1.42c0-7.14,0-14.28,0-21.42,0-1.55-.08-1.81,1.58-2a2.8,2.8,0,0,1,.2,1.62c0,6.86,0,13.72,0,20.59,0,.79-.36,1.59,0,2.38Z" transform="translate(-37.32 -244.06)"/><path class="cls-6" d="M411.06,270c1.2,0,1.54.58,1.52,1.59,0,2.85,0,5.69,0,8.54,0,4.17,0,8.34,0,12.51a5.55,5.55,0,0,1-.15,2.12,2.11,2.11,0,0,1-1.53-2.17c0-7.36,0-14.72,0-22.09A2.31,2.31,0,0,1,411.06,270Z" transform="translate(-37.32 -244.06)"/><path class="cls-3" d="M385.55,294.57a7.33,7.33,0,0,0,4.8-2.51,9.18,9.18,0,0,1,3.41-2.28,4.38,4.38,0,0,1,2.24-.14c1,.19,1.33.74.89,1.69l0,0c-3.43,1.41-7,2.31-10.52,3.57-.41.15-.63-.08-.82-.38Z" transform="translate(-37.32 -244.06)"/><path class="cls-3" d="M479,290.3c.46.55,1,.22,1.51.13.1.19.12.58.46.34s0-.42-.12-.61c-.32-.75.37-.84.74-.93a5,5,0,0,1,4.63,1.13c1.3,1.08,2.49,2.29,3.8,3.49-2.67-.87-5.33-1.75-8-2.61-.51-.17-.87-.6-1.54.08s-1.33.33-1.43-1.05Z" transform="translate(-37.32 -244.06)"/><path class="cls-3" d="M408.64,294.5c-2.49-.82-5-1.67-7.49-2.46a2.72,2.72,0,0,1-2-1.81,3.53,3.53,0,0,1,3.45-.43,8.21,8.21,0,0,1,3.28,2.14,10.28,10.28,0,0,0,3,2.17A.32.32,0,0,0,408.64,294.5Z" transform="translate(-37.32 -244.06)"/><path class="cls-3" d="M479.06,290.27c-2.56,1.66-5.55,2.19-8.37,3.17l-1.14-.13a14.52,14.52,0,0,0,3-2.42,5.85,5.85,0,0,1,4.63-1.8A1.84,1.84,0,0,1,479,290.3Z" transform="translate(-37.32 -244.06)"/><path class="cls-2" d="M469.55,293.31l1.14.13a14.81,14.81,0,0,1-2.95,1.12c-.47.2-.75,0-.94-.44v0Z" transform="translate(-37.32 -244.06)"/><path class="cls-3" d="M396.89,291.33c.43.18.76-.25,1.17-.2s.85-.12,1.05.39a.38.38,0,0,1-.08.36,1.23,1.23,0,0,1-1.34.12c-.33-.15-.14-.89-.78-.65Z" transform="translate(-37.32 -244.06)"/><path class="cls-2" d="M410.9,294.93c-.84.35-1.54-.1-2.26-.43a.32.32,0,0,1,.29-.39,2.27,2.27,0,0,1,2,.84Z" transform="translate(-37.32 -244.06)"/><path class="cls-3" d="M491.37,293.94a.76.76,0,0,1-.31.18c-.17,0-.37,0-.32-.26,0-.06.22-.12.32-.11S491.27,293.88,491.37,293.94Z" transform="translate(-37.32 -244.06)"/><polygon class="cls-2" points="373.57 50.89 373.61 50.96 373.59 50.87 373.57 50.89"/><path class="cls-3" d="M492.16,294.34s-.08.11-.13.11-.1-.08-.15-.13.11-.12.15-.12S492.12,294.29,492.16,294.34Z" transform="translate(-37.32 -244.06)"/><path class="cls-3" d="M510.92,364.66a4.62,4.62,0,0,0-3.43.16,8.24,8.24,0,0,1-4.12.21,2.93,2.93,0,0,1-2.42-4.17c.26-.79.69-1.52,1-2.28.61-1.4.32-2.24-1.11-2.81a6.06,6.06,0,0,0-4.85-.19,1.92,1.92,0,0,0-1.14,2.87c.38.82.95,1.55,1.3,2.37.89,2.08.26,3.33-1.88,4a7,7,0,0,1-3.9,0,9.05,9.05,0,0,0-5.16-.19c.63-1.42.07-2.44-.5-3.47a8.71,8.71,0,0,1-1.23-3.73,2.65,2.65,0,0,1,2.75-3.17,17.41,17.41,0,0,1,2.5.08c2,.13,2.76-.41,3.27-2.36a5.76,5.76,0,0,0-2-6,1.89,1.89,0,0,0-2.79.16c-.7.68-1.29,1.47-2,2.08-1.69,1.38-3.07,1.23-4.55-.38a6.14,6.14,0,0,1-1.65-3.75,5.34,5.34,0,0,0-1.39-3.44,5.81,5.81,0,0,0,2.87-2.65,6.82,6.82,0,0,1,3.19-2.59,3,3,0,0,1,4.19,1.55,12.94,12.94,0,0,1,.88,2.77c.64,2.24,2.25,2.76,4.09,1.31a11.56,11.56,0,0,0,1.91-1.92,1.62,1.62,0,0,0-.42-2.66c-.73-.52-1.58-.88-2.31-1.42-2.12-1.57-2.21-3.41-.27-5.21a7.28,7.28,0,0,1,3.25-1.81,5,5,0,0,0,3-1.82,5.84,5.84,0,0,0,3.08,2.22,6.69,6.69,0,0,1,3.25,2.52,2.84,2.84,0,0,1-.73,4.35,13.3,13.3,0,0,1-2.42,1.2c-1.5.71-1.84,1.75-1.06,3.23a5.22,5.22,0,0,0,4,3c1.87.25,2.81-.34,3.11-2.18a10.53,10.53,0,0,1,.57-2.42,3,3,0,0,1,4.22-1.85,7.23,7.23,0,0,1,3.33,2.43,5.18,5.18,0,0,0,3.08,2.3,4.64,4.64,0,0,0-1.21,3.39,7.72,7.72,0,0,1-1.42,4.29c-1.3,1.86-3,2.18-4.84.85-.67-.49-1.21-1.15-1.84-1.7a2.12,2.12,0,0,0-3.52.42,5.36,5.36,0,0,0-.47,5c.39,1.09,1.23,1.46,2.55,1.23a12.82,12.82,0,0,1,2.89-.28,2.92,2.92,0,0,1,3,3.25,6.86,6.86,0,0,1-1.06,3.55,19.12,19.12,0,0,0-1.06,1.79A13.12,13.12,0,0,0,510.92,364.66Zm-8.4-17.52c-2,3.45-5.79,3.44-7.66-.35-.12,2.62,1.19,4.36,3.41,4.52C500.71,351.49,502.36,349.88,502.52,347.14Zm-21.36-5c0,2.13,1,3.3,2.73,3.25s2.66-1.26,2.42-3.15C484.7,344,483.59,344.7,481.16,342.14Zm29,.72c.1,2.26,1.11,3.31,2.83,3.19s2.61-1.31,2.39-3.15C513.58,345,512.3,345.13,510.16,342.86Zm-18.07,16.26c-1.62,2.14-3.07,2.78-5.38.08.18,2.09,1.1,3.05,2.85,3S492.08,361,492.09,359.12Zm17.56.63c-1.73,2.55-2.91,2.69-5.2.6.14,1.88,1.1,2.8,2.8,2.7S509.83,361.79,509.65,359.75Zm-9.06-27.85c-2.29,2.29-3.84,2.06-5.29-.57-.19,2,.52,3.1,2.13,3.33S500.15,334.07,500.59,331.9Z" transform="translate(-37.32 -244.06)"/><path class="cls-3" d="M359.42,339a4.91,4.91,0,0,0,2.6-2.22,7.34,7.34,0,0,1,3.21-2.88c2.08-1,3.7-.38,4.6,1.71a24.94,24.94,0,0,1,.77,2.59c.66,2.09,2.27,2.6,4,1.25a11.81,11.81,0,0,0,1.66-1.58c1.17-1.36,1-2.27-.47-3.23-.65-.41-1.36-.72-2-1.18-2.13-1.59-2.23-3.38-.31-5.23a7.24,7.24,0,0,1,3.43-1.89,4.56,4.56,0,0,0,2.85-1.78,7.45,7.45,0,0,0,3.37,2.33,6.48,6.48,0,0,1,3.16,2.62,2.78,2.78,0,0,1-.68,4.05,12.13,12.13,0,0,1-2.57,1.35c-1.55.75-1.84,1.67-1.07,3.21a5.42,5.42,0,0,0,4.23,3,2.16,2.16,0,0,0,2.69-1.7c.24-.79.29-1.64.54-2.43.81-2.54,2.61-3.3,5-2.16a7.44,7.44,0,0,1,2.88,2.36,4.77,4.77,0,0,0,2.93,2.13,5,5,0,0,0-1.2,3.54,7.54,7.54,0,0,1-1.5,4.27c-1.3,1.77-2.88,2.07-4.69.8a26.13,26.13,0,0,1-2-1.81,2,2,0,0,0-3.25.22,5.7,5.7,0,0,0-.52,5.53,2.14,2.14,0,0,0,2.54.94,9.15,9.15,0,0,1,2.89-.29,2.84,2.84,0,0,1,2.91,3.12,6.76,6.76,0,0,1-1.32,4.1A5.26,5.26,0,0,0,393,363a10.15,10.15,0,0,0-4.3.48,6.6,6.6,0,0,1-3.71,0,2.92,2.92,0,0,1-2.25-4c.29-.93.8-1.77,1.17-2.67.44-1.07.28-1.85-.67-2.32a6.18,6.18,0,0,0-5.43-.38c-1.37.62-1.66,1.51-1,2.88.38.74.88,1.42,1.21,2.19,1,2.27.12,3.82-2.33,4.21a8.36,8.36,0,0,1-3.52-.12,9.37,9.37,0,0,0-5-.22,4.89,4.89,0,0,0-.85-3.93,7.3,7.3,0,0,1-1-3.58A2.59,2.59,0,0,1,368,352.6a21.81,21.81,0,0,1,2.91.08c1.79.05,2.52-.5,3-2.24a5.64,5.64,0,0,0-1.78-5.86c-1.1-1-2-1-3.06.1a13.15,13.15,0,0,1-2.21,2.2,3,3,0,0,1-4.28-.53,6.5,6.5,0,0,1-1.71-4A5.44,5.44,0,0,0,359.42,339Zm14.46,19.57a.65.65,0,0,0,.06-1c-.14-.11-.3.3-.28.57a3.45,3.45,0,0,1-2.52,1.24c-1.09,0-1.68-.9-2.6-1.68.51,2.06,1.06,2.67,2.35,2.82S373.1,360.18,373.88,358.58Zm10.31-12.24c-.41,0-.54.36-.79.58a3.89,3.89,0,0,1-6-.5c-.2-.25-.16-.77-.69-.74.21,2.48,1.53,4,3.61,4a3.53,3.53,0,0,0,3.83-3.41c.31-.11.41-.26.13-.52Zm-21.13-5.61c.08,2,1.08,3.08,2.76,3s2.52-1.18,2.37-3C366.61,342.44,365.43,343,363.06,340.73Zm34.31.63c-2.2,2.12-3,2.15-5.25.18,0,1.89,1,3,2.57,3S397.29,343.35,397.37,341.36Zm-20.18-11.71c-.08,2.31.79,3.4,2.54,3.44a2.27,2.27,0,0,0,2.5-2.54C380.17,332.64,378.6,332.41,377.19,329.65Zm9,29c.53,2.25,1.58,3.05,3.23,2.78,1.48-.24,2.13-1.18,2.08-3C389.55,360.68,388.52,360.76,386.2,358.62Z" transform="translate(-37.32 -244.06)"/><path class="cls-3" d="M439.38,365.85a6.54,6.54,0,0,0,3.11,2.31,6.79,6.79,0,0,1,3.16,2.32c1.44,1.8,1.19,3.51-.75,4.75a24.36,24.36,0,0,1-2.23,1.11c-1.43.72-1.76,1.6-1.07,3.06a5.2,5.2,0,0,0,4.32,3.17,2.31,2.31,0,0,0,2.86-2.06,12.92,12.92,0,0,1,.59-2.62,2.94,2.94,0,0,1,3.85-1.93,6.73,6.73,0,0,1,3.7,2.57,5,5,0,0,0,2.83,2.22,7.71,7.71,0,0,0-1,3.81,7.39,7.39,0,0,1-1.26,3.72c-1.38,2.08-3.15,2.4-5.12.89-.6-.46-1.1-1.06-1.67-1.57-1.3-1.17-2.5-1.05-3.49.38a5.4,5.4,0,0,0-.55,5,2,2,0,0,0,2.3,1.36c.9-.1,1.79-.32,2.68-.34,2.5-.06,3.72,1.29,3.49,3.79a6.3,6.3,0,0,1-1.09,3.11,6.63,6.63,0,0,0-1.45,3.5,8.66,8.66,0,0,0-4.37.5,5.89,5.89,0,0,1-4.07-.29,2.8,2.8,0,0,1-1.78-3.53,14.68,14.68,0,0,1,1.14-2.68c.66-1.43.36-2.17-1.07-2.81a5.5,5.5,0,0,0-3.05-.44,2.39,2.39,0,0,0-1.42.19c-1.85.72-2.18,1.65-1.23,3.39a16.62,16.62,0,0,1,1.17,2.2c.73,2-.11,3.46-2.22,3.81a8.4,8.4,0,0,1-3.53,0,15.24,15.24,0,0,0-5.29-.37,4.17,4.17,0,0,0-.63-3.4,7.79,7.79,0,0,1-1.21-4.15,2.54,2.54,0,0,1,2.3-2.75,7.26,7.26,0,0,1,2.28,0c2.92.28,4.2-.81,4.14-3.67a5.61,5.61,0,0,0-2.11-4.37c-1.14-.95-1.84-.93-2.89.1-.65.64-1.18,1.39-1.87,2a3.18,3.18,0,0,1-5-.64,6.26,6.26,0,0,1-1.37-3.44A5.31,5.31,0,0,0,419,380.4a4.84,4.84,0,0,0,2.78-2.36,7,7,0,0,1,3.66-3,2.93,2.93,0,0,1,3.88,1.47,13.33,13.33,0,0,1,1,3c.69,2.22,2.3,2.71,4.12,1.22a8.25,8.25,0,0,0,1.89-1.93,1.56,1.56,0,0,0-.48-2.48c-.68-.48-1.47-.8-2.15-1.28-2.39-1.68-2.46-3.74-.22-5.65a8.14,8.14,0,0,1,3.51-1.75A3.33,3.33,0,0,0,439.38,365.85Zm.17,9.33c2.16-.29,2.72-.9,2.76-3.23a3.44,3.44,0,0,1-2.75,1.93c-1.12-.06-1.78-1-2.72-1.58C436.91,374.23,437.49,374.8,439.55,375.18Zm.65,15.56c3.44-.28,5.1-3.23,3.31-6.2.28,2.63-1.06,3.89-3.31,4.41a3.86,3.86,0,0,1-3.62-3.41C435.89,388.64,437.15,390.38,440.2,390.74Zm16.85-8.2c-.81.82-1.38,1.81-2.68,1.79s-1.84-.87-2.72-1.67c.18,2.29,1.16,3.35,2.83,3.27S457.07,384.75,457.05,382.54ZM428,381.85a3.18,3.18,0,0,1-2.35,1.74c-1.29.17-2-.74-2.94-1.61.18,2.24,1.18,3.26,2.89,3.17C427.12,385.06,427.91,384.11,428,381.85Zm17.9,18a2.53,2.53,0,0,0,1.53,2.74,2.68,2.68,0,0,0,2.94-.3c.87-.65,1.06-1.35.79-2.79C449.61,402.09,448.06,402.25,445.87,399.89Zm-17.6-.83c.23,2,1.07,2.91,2.69,2.9s2.52-1,2.68-2.91C431.63,401.42,430.44,401.43,428.27,399.06Z" transform="translate(-37.32 -244.06)"/><path class="cls-1" d="M439.43,411.25v0Z" transform="translate(-37.32 -244.06)"/><path class="cls-5" d="M439.78,300.73c2.43,2.95,2.85,6.63,3.69,10.23,1.12-3,2-6.09,4.69-8.12a5.56,5.56,0,0,1,3.56-1.41,48.59,48.59,0,0,0-2.31,11.5c2.46-4.37,6.27-6.5,11.17-7-3.66,3.86-6.82,8-7.66,13.47a29,29,0,0,0-13.15-2.29,27.61,27.61,0,0,0-12.47,1.76c-.83.33-1.49.47-1.7-.66-.81-4.35-3.34-7.72-6.23-10.88-.36-.4-.92-.64-1.05-1.25,3.41-.42,6.83,1.73,11.13,7a42.82,42.82,0,0,0-1.94-10.19c-.13-.44-.58-.93-.13-1.34s1.09,0,1.54.2a10,10,0,0,1,4.89,5.47c.55,1.41,1,2.88,1.53,4.57a35.81,35.81,0,0,1,1.93-8.07C437.78,302.52,438.09,301,439.78,300.73Z" transform="translate(-37.32 -244.06)"/><path class="cls-5" d="M439.75,322.42a50.59,50.59,0,0,1,8.24.84,10.34,10.34,0,0,1,3.12,1.09c1.42.77,1.42,1.87,0,2.6a13.51,13.51,0,0,1-2.93,1,51,51,0,0,1-8.44.91,41.61,41.61,0,0,1-9.87-1.28,6.1,6.1,0,0,1-2.08-.92,1.15,1.15,0,0,1,0-2.06,7.89,7.89,0,0,1,3.28-1.27,41,41,0,0,1,6.81-.8C438.51,322.52,439.13,322.46,439.75,322.42Z" transform="translate(-37.32 -244.06)"/><path class="cls-5" d="M439.77,318.21c.15.8.71.83,1.39.84a30.5,30.5,0,0,1,8.15,1.31,3.12,3.12,0,0,1,2,1.21c-.31.63-.74.47-1.11.35a43,43,0,0,0-8.36-1.41,5.65,5.65,0,0,0-2.05.12c-3.27-.52-6.41.28-9.57.93-.34.07-.66.18-1,.28-.5.13-1.17.52-1.37-.22s.52-.92,1-1.1a23.61,23.61,0,0,1,4.86-.95,30,30,0,0,1,4.73-.42C439.14,319.17,439.71,319.05,439.77,318.21Z" transform="translate(-37.32 -244.06)"/><path class="cls-1" d="M480.86,290.16c.12.19.43.4.12.61s-.36-.15-.46-.34Z" transform="translate(-37.32 -244.06)"/><path class="cls-2" d="M502.52,347.14c-.16,2.74-1.81,4.35-4.25,4.17-2.22-.16-3.53-1.9-3.41-4.52C496.73,350.58,500.48,350.59,502.52,347.14Z" transform="translate(-37.32 -244.06)"/><path class="cls-2" d="M481.16,342.14c2.43,2.56,3.54,1.86,5.15.1.24,1.89-.69,3.11-2.42,3.15S481.15,344.27,481.16,342.14Z" transform="translate(-37.32 -244.06)"/><path class="cls-2" d="M510.16,342.86c2.14,2.27,3.42,2.18,5.22,0,.22,1.84-.68,3-2.39,3.15S510.26,345.12,510.16,342.86Z" transform="translate(-37.32 -244.06)"/><path class="cls-2" d="M492.09,359.12c0,1.92-.87,2.95-2.53,3s-2.67-.87-2.85-3C489,361.9,490.47,361.26,492.09,359.12Z" transform="translate(-37.32 -244.06)"/><path class="cls-2" d="M509.65,359.75c.18,2-.66,3.19-2.4,3.3s-2.66-.82-2.8-2.7C506.74,362.44,507.92,362.3,509.65,359.75Z" transform="translate(-37.32 -244.06)"/><path class="cls-2" d="M500.59,331.9c-.44,2.17-1.48,3-3.16,2.76s-2.32-1.32-2.13-3.33C496.75,334,498.3,334.19,500.59,331.9Z" transform="translate(-37.32 -244.06)"/><path class="cls-6" d="M384.16,346.31a3.53,3.53,0,0,1-3.83,3.41c-2.08-.08-3.4-1.56-3.61-4,.53,0,.49.49.69.74a3.89,3.89,0,0,0,6,.5c.25-.22.38-.6.79-.58Z" transform="translate(-37.32 -244.06)"/><path class="cls-6" d="M363.06,340.73c2.37,2.24,3.55,1.71,5.13,0,.15,1.79-.74,2.91-2.37,3S363.14,342.72,363.06,340.73Z" transform="translate(-37.32 -244.06)"/><path class="cls-6" d="M397.37,341.36c-.08,2-1.05,3.14-2.68,3.14s-2.53-1.07-2.57-3C394.35,343.51,395.17,343.48,397.37,341.36Z" transform="translate(-37.32 -244.06)"/><path class="cls-6" d="M377.19,329.65c1.41,2.76,3,3,5,.9a2.27,2.27,0,0,1-2.5,2.54C378,333.05,377.11,332,377.19,329.65Z" transform="translate(-37.32 -244.06)"/><path class="cls-6" d="M386.2,358.62c2.32,2.14,3.35,2.06,5.31-.18.05,1.78-.6,2.72-2.08,3C387.78,361.67,386.73,360.87,386.2,358.62Z" transform="translate(-37.32 -244.06)"/><path class="cls-6" d="M373.88,358.58c-.78,1.6-1.58,2.12-3,1.95s-1.84-.76-2.35-2.82c.92.78,1.51,1.64,2.6,1.68a3.45,3.45,0,0,0,2.52-1.24C373.73,358.3,373.81,358.44,373.88,358.58Z" transform="translate(-37.32 -244.06)"/><path class="cls-5" d="M373.88,358.58c-.07-.14-.15-.28-.22-.43s.14-.68.28-.57A.65.65,0,0,1,373.88,358.58Z" transform="translate(-37.32 -244.06)"/><path class="cls-6" d="M384.19,346.34l.1-.55c.28.26.18.41-.13.52Z" transform="translate(-37.32 -244.06)"/><path class="cls-2" d="M440.2,389c2.25-.52,3.59-1.78,3.31-4.41,1.79,3,.13,5.92-3.31,6.2Z" transform="translate(-37.32 -244.06)"/><path class="cls-2" d="M457.05,382.54c0,2.21-.86,3.32-2.57,3.39s-2.65-1-2.83-3.27c.88.8,1.53,1.65,2.72,1.67S456.24,383.36,457.05,382.54Z" transform="translate(-37.32 -244.06)"/><path class="cls-6" d="M428,381.85c-.06,2.26-.85,3.21-2.4,3.3-1.71.09-2.71-.93-2.89-3.17.91.87,1.65,1.78,2.94,1.61A3.18,3.18,0,0,0,428,381.85Z" transform="translate(-37.32 -244.06)"/><path class="cls-2" d="M445.87,399.89c2.19,2.36,3.74,2.2,5.26-.35.27,1.44.08,2.14-.79,2.79a2.68,2.68,0,0,1-2.94.3A2.53,2.53,0,0,1,445.87,399.89Z" transform="translate(-37.32 -244.06)"/><path class="cls-6" d="M428.27,399.06c2.17,2.37,3.36,2.36,5.37,0-.16,1.94-1.05,2.89-2.68,2.91S428.5,401.06,428.27,399.06Z" transform="translate(-37.32 -244.06)"/><path class="cls-6" d="M440.2,389v1.79c-3.05-.36-4.31-2.1-3.62-5.2A3.86,3.86,0,0,0,440.2,389Z" transform="translate(-37.32 -244.06)"/><path class="cls-2" d="M439.56,373.88a3.44,3.44,0,0,0,2.75-1.93c0,2.33-.6,2.94-2.76,3.23C439.55,374.75,439.56,374.32,439.56,373.88Z" transform="translate(-37.32 -244.06)"/><path class="cls-6" d="M439.56,373.88c0,.44,0,.87,0,1.3-2.06-.38-2.64-.95-2.71-2.88C437.78,372.88,438.44,373.82,439.56,373.88Z" transform="translate(-37.32 -244.06)"/></g></svg>